<?xml version="1.0" encoding="iso-8859-1"?>
<!-- Generator: Adobe Illustrator 19.0.0, SVG Export Plug-In . SVG Version: 6.00 Build 0)  -->
<svg version="1.1" id="Capa_1" xmlns="http://www.w3.org/2000/svg" xmlns:xlink="http://www.w3.org/1999/xlink" x="0px" y="0px"
	 viewBox="0 0 512 512" style="enable-background:new 0 0 512 512;" xml:space="preserve">
<circle style="fill:#FFE17D;" cx="256" cy="256" r="256"/>
<path style="fill:#7D5046;" d="M169.29,280.774L169.29,280.774c-11.402,0-20.645-9.243-20.645-20.645v-16.516
	c0-11.402,9.243-20.645,20.645-20.645l0,0c11.402,0,20.645,9.243,20.645,20.645v16.516
	C189.935,271.531,180.692,280.774,169.29,280.774z"/>
<path style="fill:#9C6846;" d="M169.29,222.968c-1.414,0-2.794,0.145-4.129,0.416v28.487c0,6.841,5.546,12.387,12.387,12.387
	s12.387-5.546,12.387-12.387v-8.258C189.935,232.211,180.693,222.968,169.29,222.968z"/>
<path style="fill:#7D5046;" d="M342.71,280.774L342.71,280.774c-11.402,0-20.645-9.243-20.645-20.645v-16.516
	c0-11.402,9.243-20.645,20.645-20.645l0,0c11.402,0,20.645,9.243,20.645,20.645v16.516
	C363.355,271.531,354.112,280.774,342.71,280.774z"/>
<path style="fill:#9C6846;" d="M342.71,222.968c-1.414,0-2.794,0.145-4.129,0.416v28.487c0,6.841,5.546,12.387,12.387,12.387
	s12.387-5.546,12.387-12.387v-8.258C363.355,232.211,354.112,222.968,342.71,222.968z"/>
<path style="fill:#FFD164;" d="M293.161,474.839c-141.385,0-256-114.615-256-256c0-61.227,21.521-117.411,57.376-161.463
	C36.863,104.316,0,175.842,0,256c0,141.385,114.615,256,256,256c80.159,0,151.685-36.864,198.626-94.538
	C410.573,453.317,354.389,474.839,293.161,474.839z"/>
<g>
	<path style="fill:#AA7346;" d="M206.452,208.52c-1.081,0-2.177-0.173-3.266-0.532l-74.323-24.774
		c-5.403-1.802-8.331-7.649-6.524-13.06c1.79-5.403,7.597-8.335,13.056-6.528l74.323,24.774c5.403,1.802,8.331,7.649,6.524,13.06
		C214.806,205.782,210.774,208.52,206.452,208.52z"/>
	<path style="fill:#AA7346;" d="M305.548,208.52c-4.323,0-8.355-2.738-9.79-7.06c-1.806-5.411,1.121-11.258,6.524-13.06
		l74.323-24.774c5.387-1.806,11.258,1.125,13.056,6.528c1.806,5.411-1.121,11.258-6.524,13.06l-74.323,24.774
		C307.734,208.347,306.629,208.52,305.548,208.52z"/>
</g>
<path style="fill:#9C6846;" d="M255.941,372.752c20.823,0,40.8,2.002,59.375,5.661c5.87,1.157,10.402-4.846,8.103-10.37
	c-11.256-27.037-37.208-45.979-67.478-45.979s-56.222,18.941-67.478,45.979c-2.3,5.524,2.233,11.526,8.103,10.37
	C215.141,374.754,235.118,372.752,255.941,372.752z"/>
<path style="fill:#7D5046;" d="M255.941,346.838c24.972,0,47.815,6.504,65.705,17.268c-12.055-24.92-36.927-42.041-65.704-42.041
	s-53.65,17.121-65.705,42.04C208.126,353.342,230.969,346.838,255.941,346.838z"/>
<g>
</g>
<g>
</g>
<g>
</g>
<g>
</g>
<g>
</g>
<g>
</g>
<g>
</g>
<g>
</g>
<g>
</g>
<g>
</g>
<g>
</g>
<g>
</g>
<g>
</g>
<g>
</g>
<g>
</g>
</svg>
