<?xml version="1.0" encoding="iso-8859-1"?>
<!-- Generator: Adobe Illustrator 19.0.0, SVG Export Plug-In . SVG Version: 6.00 Build 0)  -->
<svg version="1.1" id="Capa_1" xmlns="http://www.w3.org/2000/svg" xmlns:xlink="http://www.w3.org/1999/xlink" x="0px" y="0px"
	 viewBox="0 0 512 512" style="enable-background:new 0 0 512 512;" xml:space="preserve">
<circle style="fill:#FFE17D;" cx="256" cy="256" r="256"/>
<path style="fill:#FFD164;" d="M293.161,474.839c-141.385,0-256-114.615-256-256c0-61.227,21.521-117.411,57.376-161.463
	C36.863,104.316,0,175.842,0,256c0,141.385,114.615,256,256,256c80.159,0,151.685-36.864,198.626-94.538
	C410.573,453.317,354.389,474.839,293.161,474.839z"/>
<path style="fill:#9C6846;" d="M256.118,351.924c-21.882,0-42.77-1.79-61.933-5.025c-2.482-0.419-4.621,1.407-3.856,3.311
	c8.838,21.976,34.923,37.919,65.788,37.919s56.951-15.943,65.788-37.919c0.766-1.904-1.374-3.73-3.856-3.311
	C298.888,350.134,278.001,351.924,256.118,351.924z"/>
<g>
	<path style="fill:#AA7346;" d="M165.161,266.323c-15.702,0-30.669-7.423-41.081-20.371c-3.573-4.444-2.863-10.944,1.581-14.512
		c4.444-3.577,10.952-2.859,14.516,1.577c6.556,8.165,15.435,12.661,24.984,12.661s18.427-4.496,24.984-12.661
		c3.573-4.435,10.081-5.153,14.516-1.577c4.444,3.569,5.153,10.069,1.581,14.512C195.831,258.899,180.863,266.323,165.161,266.323z"
		/>
	<path style="fill:#AA7346;" d="M346.871,266.323c-15.702,0-30.669-7.423-41.081-20.371c-3.573-4.444-2.863-10.944,1.581-14.512
		c4.444-3.577,10.944-2.859,14.516,1.577c6.556,8.165,15.435,12.661,24.984,12.661c9.548,0,18.427-4.496,24.984-12.661
		c3.565-4.435,10.073-5.153,14.516-1.577c4.444,3.569,5.153,10.069,1.581,14.512C377.54,258.899,362.573,266.323,346.871,266.323z"
		/>
	<path style="fill:#AA7346;" d="M115.605,208.52c-4.435,0-8.54-2.887-9.879-7.359c-1.637-5.464,1.46-11.218,6.919-12.855
		l82.581-24.774c5.476-1.633,11.218,1.456,12.855,6.919s-1.46,11.218-6.919,12.855l-82.581,24.774
		C117.589,208.379,116.589,208.52,115.605,208.52z"/>
	<path style="fill:#AA7346;" d="M396.395,208.52c-0.984,0-1.984-0.141-2.976-0.44l-82.581-24.774
		c-5.46-1.637-8.556-7.391-6.919-12.855c1.637-5.464,7.395-8.552,12.855-6.919l82.581,24.774c5.46,1.637,8.556,7.391,6.919,12.855
		C404.935,205.633,400.831,208.52,396.395,208.52z"/>
</g>
<path style="fill:#7D5046;" d="M321.907,350.21c0.766-1.904-1.374-3.73-3.856-3.311c-19.163,3.235-40.05,5.025-61.932,5.025
	c-21.883,0-42.77-1.79-61.932-5.025c-2.482-0.419-4.621,1.407-3.856,3.311c2.71,6.74,7.199,12.806,12.794,18.126
	c16.545,2.1,34.361,3.277,52.994,3.277s36.449-1.177,52.994-3.277C314.708,363.017,319.196,356.95,321.907,350.21z"/>
<g>
</g>
<g>
</g>
<g>
</g>
<g>
</g>
<g>
</g>
<g>
</g>
<g>
</g>
<g>
</g>
<g>
</g>
<g>
</g>
<g>
</g>
<g>
</g>
<g>
</g>
<g>
</g>
<g>
</g>
</svg>
