<?xml version="1.0" encoding="iso-8859-1"?>
<!-- Generator: Adobe Illustrator 19.0.0, SVG Export Plug-In . SVG Version: 6.00 Build 0)  -->
<svg version="1.1" id="Capa_1" xmlns="http://www.w3.org/2000/svg" xmlns:xlink="http://www.w3.org/1999/xlink" x="0px" y="0px"
	 viewBox="0 0 512 512" style="enable-background:new 0 0 512 512;" xml:space="preserve">
<circle style="fill:#FFE17D;" cx="256" cy="305.47" r="206.53"/>
<path style="fill:#FFD164;" d="M287.886,482.011c-111.619,1.01-205.572-89.665-208.369-201.253c-0.022-0.866-0.038-1.73-0.049-2.593
	c-0.686-53.866,48.361-95.682,101.445-86.511c24.479,4.229,49.642,6.421,75.087,6.421c54.412,0,107.597-9.921,155.487-28.457
	C373.629,126.325,318.029,98.941,256,98.941c-49.501,0-94.875,17.477-130.437,46.523c0.062-0.076,0.114-0.159,0.176-0.235
	c-0.494,0.402-11.171,9.873-11.868,10.536c-1.976,1.876-11.321,11.528-13.326,13.819c-0.01,0.012-0.022,0.023-0.032,0.034
	l0.002,0.001c-35.045,40.063-54.894,93.749-50.42,152.114c7.651,99.798,88.18,181.061,187.914,189.504
	c71.889,6.086,136.885-24.702,178.233-75.507C381.16,464.284,336.541,481.571,287.886,482.011z"/>
<path style="fill:#7D5046;" d="M462.336,96.139c-24.451,7.466-90.68,18.231-90.68,18.231l-231.313-0.126
	c0,0-66.451-10.708-90.68-18.105c-8.341-2.547-16.715,3.677-16.715,12.398c0,4.329,2.107,8.42,5.708,10.821
	C96.724,158.074,172.753,181.553,256,181.553s159.276-23.479,217.344-62.194c3.601-2.402,5.708-6.492,5.708-10.821
	C479.052,99.816,470.678,93.593,462.336,96.139z"/>
<path style="fill:#9C6846;" d="M328.85,0.616l-58.311,15.145c-9.534,2.476-19.542,2.476-29.075,0L183.153,0.616
	c-10.02-2.603-20.285,3.275-23.113,13.234l-29.278,103.115c-1.846,6.501,1.817,13.391,8.31,15.267
	c36.346,10.501,75.744,16.276,116.928,16.276c41.188,0,80.579-5.792,116.926-16.297c6.492-1.876,10.155-8.766,8.309-15.266
	L351.963,13.85C349.135,3.891,338.871-1.986,328.85,0.616z"/>
<path style="fill:#AA7346;" d="M255.968,414.931c-35.521,0-69.244-13.602-90.211-36.377c-3.864-4.195-3.59-10.73,0.605-14.594
	c4.203-3.848,10.722-3.582,14.594,0.605c17.119,18.604,45.162,29.713,75.012,29.713c29.858,0,57.893-11.109,75.012-29.713
	c3.864-4.187,10.407-4.453,14.594-0.605c4.195,3.864,4.469,10.391,0.605,14.594C325.22,401.329,291.497,414.931,255.968,414.931z"/>
<path style="fill:#7D5046;" d="M177.519,305.47L177.519,305.47c-11.406,0-20.653-9.247-20.653-20.653v-16.522
	c0-11.406,9.247-20.653,20.653-20.653l0,0c11.406,0,20.653,9.247,20.653,20.653v16.522
	C198.172,296.224,188.925,305.47,177.519,305.47z"/>
<path style="fill:#9C6846;" d="M177.519,247.642c-1.415,0-2.795,0.145-4.131,0.416v28.498c0,6.844,5.548,12.392,12.392,12.392
	s12.392-5.548,12.392-12.392v-8.261C198.172,256.889,188.925,247.642,177.519,247.642z"/>
<path style="fill:#7D5046;" d="M334.481,305.47L334.481,305.47c-11.406,0-20.653-9.247-20.653-20.653v-16.522
	c0-11.406,9.247-20.653,20.653-20.653l0,0c11.406,0,20.653,9.247,20.653,20.653v16.522
	C355.134,296.224,345.888,305.47,334.481,305.47z"/>
<path style="fill:#9C6846;" d="M334.481,247.642c-1.415,0-2.795,0.145-4.131,0.416v28.498c0,6.844,5.548,12.392,12.392,12.392
	s12.392-5.548,12.392-12.392v-8.261C355.134,256.889,345.888,247.642,334.481,247.642z"/>
<path style="fill:#8C5C46;" d="M380.139,113.085c-2.572,0.669-188.737,48.514-189.571-110.543l-7.415-1.926
	c-10.02-2.602-20.285,3.275-23.113,13.234l-29.278,103.116c-1.846,6.501,1.817,13.391,8.31,15.266
	c36.346,10.501,75.744,16.276,116.928,16.276c41.187,0,80.579-5.792,116.926-16.297c6.492-1.876,10.155-8.765,8.309-15.266
	L380.139,113.085z"/>
<g>
</g>
<g>
</g>
<g>
</g>
<g>
</g>
<g>
</g>
<g>
</g>
<g>
</g>
<g>
</g>
<g>
</g>
<g>
</g>
<g>
</g>
<g>
</g>
<g>
</g>
<g>
</g>
<g>
</g>
</svg>
