<?xml version="1.0" encoding="iso-8859-1"?>
<!-- Generator: Adobe Illustrator 19.0.0, SVG Export Plug-In . SVG Version: 6.00 Build 0)  -->
<svg version="1.1" id="Capa_1" xmlns="http://www.w3.org/2000/svg" xmlns:xlink="http://www.w3.org/1999/xlink" x="0px" y="0px"
	 viewBox="0 0 512 512" style="enable-background:new 0 0 512 512;" xml:space="preserve">
<circle style="fill:#FFE17D;" cx="256" cy="256" r="256"/>
<path style="fill:#AA7346;" d="M173.387,381.935c-2.5,0-5.008-0.903-6.992-2.726c-4.194-3.863-4.468-10.391-0.605-14.589
	c20.952-22.77,54.669-36.363,90.177-36.363c35.524,0,69.234,13.597,90.177,36.367c3.863,4.194,3.589,10.726-0.605,14.585
	c-4.185,3.863-10.726,3.601-14.589-0.609c-17.105-18.597-45.137-29.698-74.984-29.698c-29.839,0-57.871,11.101-74.984,29.702
	C178.952,380.815,176.169,381.935,173.387,381.935z"/>
<path style="fill:#FFD164;" d="M293.161,474.839c-141.385,0-256-114.615-256-256c0-61.227,21.521-117.411,57.376-161.463
	C36.863,104.316,0,175.842,0,256c0,141.385,114.615,256,256,256c80.159,0,151.685-36.864,198.626-94.538
	C410.573,453.317,354.389,474.839,293.161,474.839z"/>
<g>
	<path style="fill:#AA7346;" d="M209.621,182.637c-4.032-4.032-10.565-4.032-14.597,0l-25.734,25.734l-25.734-25.734
		c-4.032-4.032-10.565-4.032-14.597,0s-4.032,10.565,0,14.597l25.734,25.734l-25.734,25.734c-4.032,4.032-4.032,10.565,0,14.597
		c2.016,2.016,4.653,3.024,7.298,3.024s5.282-1.008,7.298-3.024l25.734-25.734l25.734,25.734c2.016,2.016,4.653,3.024,7.298,3.024
		s5.282-1.008,7.298-3.024c4.032-4.032,4.032-10.565,0-14.597l-25.734-25.734l25.734-25.734
		C213.653,193.202,213.653,186.669,209.621,182.637z"/>
	<path style="fill:#AA7346;" d="M357.306,222.968l25.734-25.734c4.032-4.032,4.032-10.565,0-14.597s-10.565-4.032-14.597,0
		l-25.734,25.734l-25.734-25.734c-4.032-4.032-10.565-4.032-14.597,0s-4.032,10.565,0,14.597l25.734,25.734l-25.734,25.734
		c-4.032,4.032-4.032,10.565,0,14.597c2.016,2.016,4.653,3.024,7.298,3.024s5.282-1.008,7.298-3.024l25.734-25.734l25.734,25.734
		c2.016,2.016,4.653,3.024,7.298,3.024s5.282-1.008,7.298-3.024c4.032-4.032,4.032-10.565,0-14.597L357.306,222.968z"/>
</g>
<g>
</g>
<g>
</g>
<g>
</g>
<g>
</g>
<g>
</g>
<g>
</g>
<g>
</g>
<g>
</g>
<g>
</g>
<g>
</g>
<g>
</g>
<g>
</g>
<g>
</g>
<g>
</g>
<g>
</g>
</svg>
