<?xml version="1.0" encoding="iso-8859-1"?>
<!-- Generator: Adobe Illustrator 19.0.0, SVG Export Plug-In . SVG Version: 6.00 Build 0)  -->
<svg version="1.1" id="Capa_1" xmlns="http://www.w3.org/2000/svg" xmlns:xlink="http://www.w3.org/1999/xlink" x="0px" y="0px"
	 viewBox="0 0 512 512" style="enable-background:new 0 0 512 512;" xml:space="preserve">
<circle style="fill:#FFE17D;" cx="256" cy="256" r="256"/>
<path style="fill:#FFD164;" d="M293.161,474.839c-141.385,0-256-114.615-256-256c0-61.227,21.521-117.411,57.376-161.463
	C36.863,104.316,0,175.842,0,256c0,141.385,114.615,256,256,256c80.159,0,151.685-36.864,198.626-94.538
	C410.573,453.317,354.389,474.839,293.161,474.839z"/>
<path style="fill:#9C6846;" d="M255.797,382.646c46.603,0.044,91.083,5.099,131.885,14.198c5.285,1.179,9.846-3.932,8.22-9.266
	c-18.763-61.567-74.275-106.27-140.009-106.332s-121.331,44.535-140.211,106.066c-1.636,5.33,2.915,10.45,8.203,9.281
	C164.705,387.572,209.195,382.602,255.797,382.646z"/>
<path style="fill:#7D5046;" d="M255.961,343.001c45.262,0.066,89.031,7.453,130.574,21.091
	c-24.32-49.113-73.613-82.792-130.641-82.847c-57.005-0.054-106.345,33.506-130.768,82.542
	C166.755,350.222,210.613,342.934,255.961,343.001z"/>
<g>
	<path style="fill:#AA7346;" d="M158.54,250.266c-11.444,0-22.879-3.883-32.645-11.278c-4.54-3.444-5.435-9.919-1.992-14.464
		c3.427-4.544,9.911-5.448,14.46-1.996c8.347,6.323,18.032,8.536,27.315,6.218c9.258-2.323,16.774-8.843,21.169-18.359
		c2.387-5.177,8.5-7.448,13.694-5.052c5.177,2.387,7.435,8.52,5.048,13.698c-6.952,15.085-19.669,25.923-34.895,29.738
		C166.694,249.77,162.621,250.266,158.54,250.266z"/>
	<path style="fill:#AA7346;" d="M353.46,250.266c-4.081,0-8.153-0.492-12.153-1.496c-15.226-3.815-27.944-14.653-34.895-29.738
		c-2.387-5.177-0.129-11.31,5.048-13.698c5.194-2.395,11.306-0.125,13.694,5.052c4.395,9.516,11.911,16.036,21.169,18.359
		c9.274,2.319,18.96,0.105,27.315-6.218c4.548-3.44,11.032-2.54,14.46,1.996c3.444,4.544,2.548,11.02-1.992,14.464
		C376.339,246.383,364.895,250.266,353.46,250.266z"/>
	<path style="fill:#AA7346;" d="M123.863,192.004c-4.492,0-8.621-2.956-9.919-7.492c-1.565-5.48,1.613-11.194,7.089-12.758
		c54.048-15.444,77.919-38.468,78.153-38.698c4.048-3.98,10.581-3.956,14.581,0.081c4,4.036,4,10.532-0.016,14.548
		c-1.089,1.089-27.355,26.863-87.04,43.915C125.758,191.875,124.806,192.004,123.863,192.004z"/>
	<path style="fill:#AA7346;" d="M388.137,192.004c-0.944,0-1.895-0.129-2.847-0.403c-59.685-17.052-85.952-42.827-87.04-43.915
		c-4.032-4.032-4.032-10.565,0-14.597s10.565-4.032,14.597,0c0.202,0.198,24.073,23.222,78.121,38.665
		c5.476,1.565,8.653,7.278,7.089,12.758C396.758,189.048,392.629,192.004,388.137,192.004z"/>
</g>
<path style="fill:#FFFFFF;" d="M145.514,332.948c33.294-12.376,70.743-19.337,110.383-19.299
	c39.599,0.037,77.001,7.055,110.245,19.47c-26.885-31.72-66.242-51.831-110.247-51.873
	C211.87,281.204,172.459,301.256,145.514,332.948z"/>
<g>
</g>
<g>
</g>
<g>
</g>
<g>
</g>
<g>
</g>
<g>
</g>
<g>
</g>
<g>
</g>
<g>
</g>
<g>
</g>
<g>
</g>
<g>
</g>
<g>
</g>
<g>
</g>
<g>
</g>
</svg>
