<?xml version="1.0" encoding="iso-8859-1"?>
<!-- Generator: Adobe Illustrator 19.0.0, SVG Export Plug-In . SVG Version: 6.00 Build 0)  -->
<svg version="1.1" id="Capa_1" xmlns="http://www.w3.org/2000/svg" xmlns:xlink="http://www.w3.org/1999/xlink" x="0px" y="0px"
	 viewBox="0 0 512 512" style="enable-background:new 0 0 512 512;" xml:space="preserve">
<circle style="fill:#FFE17D;" cx="256" cy="256" r="256"/>
<path style="fill:#FFD164;" d="M293.161,474.839c-141.385,0-256-114.615-256-256c0-61.227,21.521-117.411,57.376-161.463
	C36.863,104.316,0,175.842,0,256c0,141.385,114.615,256,256,256c80.159,0,151.685-36.864,198.626-94.538
	C410.573,453.317,354.389,474.839,293.161,474.839z"/>
<g>
	<path style="fill:#AA7346;" d="M379.911,183.742c-3.024,0-6.016-1.315-8.056-3.855c-6.556-8.161-15.435-12.661-24.984-12.661
		c-9.548,0-18.427,4.5-24.984,12.661c-3.573,4.444-10.073,5.153-14.516,1.581s-5.153-10.073-1.581-14.516
		c10.411-12.948,25.379-20.371,41.081-20.371s30.669,7.423,41.081,20.371c3.573,4.444,2.863,10.944-1.581,14.516
		C384.468,183,382.177,183.742,379.911,183.742z"/>
	<path style="fill:#AA7346;" d="M198.202,183.742c-3.024,0-6.016-1.315-8.056-3.855c-6.556-8.161-15.435-12.661-24.984-12.661
		s-18.427,4.5-24.984,12.661c-3.573,4.444-10.073,5.153-14.516,1.581s-5.153-10.073-1.581-14.516
		c10.411-12.948,25.379-20.371,41.081-20.371s30.669,7.423,41.081,20.371c3.573,4.444,2.863,10.944-1.581,14.516
		C202.758,183,200.468,183.742,198.202,183.742z"/>
</g>
<path style="fill:#9C6846;" d="M158.57,264.524c-8.202-2.042-13.562,8.183-7.51,14.083c28.353,27.643,64.914,44.35,104.94,44.35
	s76.587-16.707,104.94-44.35c6.052-5.901,0.692-16.125-7.51-14.083c-30.343,7.554-63.133,11.724-97.43,11.724
	C221.704,276.248,188.913,272.078,158.57,264.524z"/>
<path style="fill:#7D5046;" d="M353.43,264.523c-30.343,7.554-63.134,11.724-97.43,11.724s-67.087-4.17-97.429-11.724
	c-8.202-2.042-13.562,8.182-7.511,14.083c5.451,5.315,11.291,10.085,17.316,14.55c28.185,3.173,57.422,5.026,87.624,5.026
	s59.439-1.852,87.623-5.026c6.025-4.466,11.864-9.236,17.316-14.551C366.992,272.706,361.632,262.481,353.43,264.523z"/>
<path style="fill:#FFD164;" d="M32.948,450.888l66.128,47.234c29.635,21.168,70.23,17.808,95.982-7.944l0,0
	c22.263-22.263,28.127-56.118,14.649-84.572l-25.72-54.297c-2.488-5.252-8.506-7.82-14.019-5.983l0,0
	c-4.693,1.564-7.858,5.956-7.858,10.902v26.753l-55.29-75.396c-4.702-6.412-14.013-7.124-19.635-1.502l0,0
	c-4.051,4.051-4.965,10.28-2.249,15.324l36.299,67.413l-55.076-55.076c-5.057-5.057-13.256-5.057-18.313,0l0,0
	c-4.736,4.736-5.079,12.301-0.791,17.446l50.823,60.988l-61.247-40.831c-5.132-3.421-11.964-2.744-16.325,1.617l0,0
	c-5.38,5.38-4.979,14.217,0.866,19.088l59.188,49.323l-36.391-12.13c-7.952-2.651-16.163,3.268-16.163,11.65l0,0
	C27.806,444.861,29.721,448.583,32.948,450.888z"/>
<g>
	<path style="fill:#FFC350;" d="M123.85,489.864l-90.215-59.34c-3.425,2.135-5.829,5.869-5.829,10.371
		c0,3.966,1.915,7.688,5.142,9.992l66.128,47.234c23.701,16.929,54.392,18.126,78.914,4.773
		C159.474,505.614,140.032,501.422,123.85,489.864z"/>
	<path style="fill:#FFC350;" d="M20.027,373.309c-5.046,5.405-4.583,13.97,1.145,18.743l59.398,49.805
		c2.586,2.169,6.203,2.623,9.245,1.161l0,0c5.763-2.769,6.594-10.636,1.537-14.548L20.027,373.309z"/>
	<path style="fill:#FFC350;" d="M49.588,332.323c-0.606,0.426-1.2,0.881-1.741,1.422c-4.736,4.735-5.079,12.301-0.791,17.446
		l53.265,63.865c2.41,2.89,6.499,3.73,9.853,2.023l0,0c4.683-2.382,5.876-8.533,2.423-12.493L49.588,332.323z"/>
	<path style="fill:#FFC350;" d="M87.185,306.085c-4.051,4.051-4.965,10.28-2.249,15.324l38.519,71.505
		c1.851,3.437,5.842,5.126,9.598,4.064l0,0c5.318-1.504,7.722-7.675,4.824-12.381l-49.129-79.763
		C88.214,305.225,87.67,305.6,87.185,306.085z"/>
	<path style="fill:#FFC350;" d="M173.757,344.8c-1.258-0.017-2.535,0.109-3.788,0.527c-4.693,1.564-7.858,5.956-7.858,10.902v26.753
		l6.615,8.448c3.849,4.916,11.724,1.576,10.865-4.608L173.757,344.8z"/>
</g>
<path style="fill:#FFD164;" d="M479.052,450.888l-66.128,47.234c-29.635,21.168-70.23,17.808-95.982-7.944l0,0
	c-22.263-22.263-28.127-56.118-14.649-84.572l25.72-54.297c2.488-5.252,8.506-7.82,14.019-5.983l0,0
	c4.693,1.564,7.858,5.956,7.858,10.902v26.753l55.29-75.396c4.702-6.412,14.013-7.124,19.635-1.502l0,0
	c4.051,4.051,4.965,10.28,2.249,15.324l-36.299,67.413l55.076-55.076c5.057-5.057,13.256-5.057,18.313,0l0,0
	c4.736,4.736,5.079,12.301,0.791,17.446l-50.823,60.988l61.247-40.831c5.132-3.421,11.964-2.744,16.325,1.617l0,0
	c5.38,5.38,4.979,14.217-0.866,19.088l-59.188,49.323l36.391-12.13c7.952-2.651,16.163,3.268,16.163,11.65l0,0
	C484.194,444.861,482.279,448.583,479.052,450.888z"/>
<g>
	<path style="fill:#FFC350;" d="M388.15,489.864l90.215-59.34c3.425,2.135,5.829,5.869,5.829,10.371
		c0,3.966-1.915,7.688-5.142,9.992l-66.128,47.234c-23.701,16.929-54.392,18.126-78.914,4.773
		C352.526,505.614,371.968,501.422,388.15,489.864z"/>
	<path style="fill:#FFC350;" d="M491.973,373.309c5.046,5.405,4.583,13.97-1.145,18.743l-59.398,49.805
		c-2.586,2.169-6.203,2.623-9.245,1.161l0,0c-5.763-2.769-6.594-10.636-1.537-14.548L491.973,373.309z"/>
	<path style="fill:#FFC350;" d="M462.412,332.323c0.606,0.426,1.2,0.881,1.741,1.422c4.736,4.735,5.079,12.301,0.791,17.446
		l-53.265,63.865c-2.41,2.89-6.499,3.73-9.853,2.023l0,0c-4.683-2.382-5.876-8.533-2.423-12.493L462.412,332.323z"/>
	<path style="fill:#FFC350;" d="M424.815,306.085c4.051,4.051,4.965,10.28,2.249,15.324l-38.519,71.505
		c-1.851,3.437-5.842,5.126-9.598,4.064l0,0c-5.318-1.504-7.722-7.675-4.824-12.381l49.129-79.763
		C423.786,305.225,424.33,305.6,424.815,306.085z"/>
	<path style="fill:#FFC350;" d="M338.243,344.8c1.258-0.017,2.535,0.109,3.788,0.527c4.693,1.564,7.858,5.956,7.858,10.902v26.753
		l-6.615,8.448c-3.849,4.916-11.724,1.576-10.865-4.608L338.243,344.8z"/>
</g>
<g>
</g>
<g>
</g>
<g>
</g>
<g>
</g>
<g>
</g>
<g>
</g>
<g>
</g>
<g>
</g>
<g>
</g>
<g>
</g>
<g>
</g>
<g>
</g>
<g>
</g>
<g>
</g>
<g>
</g>
</svg>
