<?xml version="1.0" encoding="iso-8859-1"?>
<!-- Generator: Adobe Illustrator 19.0.0, SVG Export Plug-In . SVG Version: 6.00 Build 0)  -->
<svg version="1.1" id="Capa_1" xmlns="http://www.w3.org/2000/svg" xmlns:xlink="http://www.w3.org/1999/xlink" x="0px" y="0px"
	 viewBox="0 0 512 512" style="enable-background:new 0 0 512 512;" xml:space="preserve">
<circle style="fill:#FFE17D;" cx="256" cy="256" r="256"/>
<path style="fill:#FFD164;" d="M293.161,474.839c-141.385,0-256-114.615-256-256c0-61.227,21.521-117.411,57.376-161.463
	C36.863,104.316,0,175.842,0,256c0,141.385,114.615,256,256,256c80.159,0,151.685-36.864,198.626-94.538
	C410.573,453.317,354.389,474.839,293.161,474.839z"/>
<path style="fill:#FFFFFF;" d="M346.704,16.592L269.552,59.99c-6.221,3.499-13.407,4.889-20.484,3.962l-139.04-18.211
	C91.594,58.562,74.932,73.733,60.469,90.839H214.71L4.351,209.165C1.541,224.357,0,239.994,0,256
	c0,13.711,1.106,27.161,3.182,40.288L452.78,92.28C424.784,58.669,388.335,32.374,346.704,16.592z"/>
<g>
	<path style="fill:#AA7346;" d="M404.653,216.806c-0.815,0-1.645-0.097-2.476-0.298c-50.758-12.5-85.427-42.258-86.879-43.524
		c-4.306-3.734-4.758-10.242-1.032-14.548c3.734-4.306,10.258-4.774,14.556-1.04c0.323,0.274,32.556,27.798,78.29,39.065
		c5.54,1.363,8.919,6.96,7.556,12.492C413.508,213.661,409.29,216.806,404.653,216.806z"/>
	<path style="fill:#AA7346;" d="M330.315,398.452c-1.919,0-3.863-0.532-5.597-1.653c-35.29-22.806-101.097-23.121-101.758-23.121
		c-5.694-0.008-10.315-4.629-10.315-10.331c0.008-5.694,4.621-10.315,10.323-10.315c2.944,0,72.524,0.298,112.96,26.427
		c4.782,3.097,6.161,9.484,3.065,14.274C337.016,396.79,333.702,398.452,330.315,398.452z"/>
</g>
<path style="fill:#7D5046;" d="M169.29,280.774L169.29,280.774c-11.402,0-20.645-9.243-20.645-20.645v-16.516
	c0-11.402,9.243-20.645,20.645-20.645l0,0c11.402,0,20.645,9.243,20.645,20.645v16.516
	C189.935,271.531,180.692,280.774,169.29,280.774z"/>
<path style="fill:#9C6846;" d="M169.29,222.968c-1.414,0-2.794,0.145-4.129,0.416v28.487c0,6.841,5.546,12.387,12.387,12.387
	s12.387-5.546,12.387-12.387v-8.258C189.935,232.211,180.693,222.968,169.29,222.968z"/>
<path style="fill:#7D5046;" d="M342.71,280.774L342.71,280.774c-11.402,0-20.645-9.243-20.645-20.645v-16.516
	c0-11.402,9.243-20.645,20.645-20.645l0,0c11.402,0,20.645,9.243,20.645,20.645v16.516
	C363.355,271.531,354.112,280.774,342.71,280.774z"/>
<path style="fill:#9C6846;" d="M342.71,222.968c-1.414,0-2.794,0.145-4.129,0.416v28.487c0,6.841,5.546,12.387,12.387,12.387
	s12.387-5.546,12.387-12.387v-8.258C363.355,232.211,354.112,222.968,342.71,222.968z"/>
<g>
	<path style="fill:#FFF1C4;" d="M37.161,218.839c0-9.84,0.614-19.533,1.697-29.083l-34.507,19.41C1.541,224.357,0,239.994,0,256
		c0,13.711,1.106,27.161,3.182,40.288l40.868-18.544C39.592,258.823,37.161,239.12,37.161,218.839z"/>
	<path style="fill:#FFF1C4;" d="M53.219,181.677h202.545L452.78,92.28c-5.23-6.279-10.847-12.21-16.646-17.958H244.072
		L53.219,181.677z"/>
	<path style="fill:#FFF1C4;" d="M60.469,90.839H214.71l-29.362,16.516h234.21L452.78,92.28c-5.23-6.279-10.847-12.21-16.646-17.958
		H75.897C70.544,79.628,65.339,85.079,60.469,90.839z"/>
</g>
<path style="fill:#FFFFFF;" d="M16.645,165.161h478.711c-10.376-27.323-25.285-52.397-43.824-74.323H60.469
	C41.929,112.765,27.02,137.839,16.645,165.161z"/>
<path style="fill:#FFF1C4;" d="M60.558,90.839c-18.555,21.926-33.474,46.995-43.861,74.323h26.146
	c5.669-26.533,15.448-51.534,28.642-74.323C71.485,90.839,60.558,90.839,60.558,90.839z"/>
<g>
</g>
<g>
</g>
<g>
</g>
<g>
</g>
<g>
</g>
<g>
</g>
<g>
</g>
<g>
</g>
<g>
</g>
<g>
</g>
<g>
</g>
<g>
</g>
<g>
</g>
<g>
</g>
<g>
</g>
</svg>
