<?xml version="1.0" encoding="iso-8859-1"?>
<!-- Generator: Adobe Illustrator 19.0.0, SVG Export Plug-In . SVG Version: 6.00 Build 0)  -->
<svg version="1.1" id="Capa_1" xmlns="http://www.w3.org/2000/svg" xmlns:xlink="http://www.w3.org/1999/xlink" x="0px" y="0px"
	 viewBox="0 0 512 512" style="enable-background:new 0 0 512 512;" xml:space="preserve">
<circle style="fill:#FFE17D;" cx="256" cy="256" r="256"/>
<path style="fill:#FFD164;" d="M293.161,474.839c-141.385,0-256-114.615-256-256c0-61.227,21.521-117.411,57.376-161.463
	C36.863,104.316,0,175.842,0,256c0,141.385,114.615,256,256,256c80.159,0,151.685-36.864,198.626-94.538
	C410.573,453.317,354.389,474.839,293.161,474.839z"/>
<path style="fill:#FFFFFF;" d="M371.613,379.872H140.387c-27.365,0-49.548-22.184-49.548-49.548l0,0
	c0-27.365,22.184-49.548,49.548-49.548h231.226c27.365,0,49.548,22.184,49.548,49.548l0,0
	C421.161,357.688,398.978,379.872,371.613,379.872z"/>
<g>
	<path style="fill:#AA7346;" d="M379.879,216.774c-3.024,0-6.016-1.319-8.056-3.855c-6.556-8.165-15.435-12.661-24.984-12.661
		c-9.548,0-18.427,4.496-24.984,12.661c-3.573,4.44-10.073,5.153-14.516,1.577c-4.444-3.569-5.153-10.069-1.581-14.512
		c10.411-12.948,25.379-20.371,41.081-20.371s30.669,7.423,41.081,20.371c3.573,4.444,2.863,10.944-1.581,14.512
		C384.435,216.028,382.145,216.774,379.879,216.774z"/>
	<path style="fill:#AA7346;" d="M198.169,216.774c-3.024,0-6.016-1.319-8.056-3.855c-6.556-8.165-15.435-12.661-24.984-12.661
		s-18.427,4.496-24.984,12.661c-3.565,4.44-10.073,5.153-14.516,1.577c-4.444-3.569-5.153-10.069-1.581-14.512
		c10.411-12.948,25.379-20.371,41.081-20.371s30.669,7.423,41.081,20.371c3.573,4.444,2.863,10.944-1.581,14.512
		C202.726,216.028,200.435,216.774,198.169,216.774z"/>
</g>
<path style="fill:#FFF1C4;" d="M421.161,330.324c0-2.821-0.29-5.568-0.743-8.259h-24.031c-4.561,0-8.258-3.697-8.258-8.258v-8.258
	c0-4.561-3.698-8.258-8.258-8.258s-8.258,3.697-8.258,8.258v8.258c0,4.561-3.697,8.258-8.258,8.258h-8.258
	c-4.561,0-8.258-3.697-8.258-8.258v-8.258c0-4.561-3.697-8.258-8.258-8.258s-8.258,3.697-8.258,8.258v8.258
	c0,4.561-3.697,8.258-8.258,8.258h-8.258c-4.561,0-8.258-3.697-8.258-8.258v-8.258c0-4.561-3.697-8.258-8.258-8.258
	s-8.258,3.697-8.258,8.258v8.258c0,4.561-3.697,8.258-8.258,8.258h-8.258c-4.561,0-8.258-3.697-8.258-8.258v-8.258
	c0-4.561-3.697-8.258-8.258-8.258s-8.258,3.697-8.258,8.258v8.258c0,4.561-3.697,8.258-8.258,8.258h-8.258
	c-4.561,0-8.258-3.697-8.258-8.258v-8.258c0-4.561-3.697-8.258-8.258-8.258c-4.561,0-8.258,3.697-8.258,8.258v8.258
	c0,4.561-3.697,8.258-8.258,8.258h-8.258c-4.561,0-8.258-3.697-8.258-8.258v-8.258c0-4.561-3.697-8.258-8.258-8.258
	s-8.258,3.697-8.258,8.258v8.258c0,4.561-3.697,8.258-8.258,8.258h-8.258c-4.561,0-8.258-3.697-8.258-8.258v-8.258
	c0-4.561-3.697-8.258-8.258-8.258c-4.561,0-8.258,3.697-8.258,8.258v8.258c0,4.561-3.697,8.258-8.258,8.258H91.582
	c-0.453,2.692-0.743,5.439-0.743,8.259s0.29,5.566,0.743,8.257h24.031c4.561,0,8.258,3.697,8.258,8.258v8.258
	c0,4.56,3.697,8.258,8.258,8.258c4.561,0,8.258-3.698,8.258-8.258v-8.258c0-4.561,3.697-8.258,8.258-8.258h8.258
	c4.561,0,8.258,3.697,8.258,8.258v8.258c0,4.56,3.697,8.258,8.258,8.258s8.258-3.698,8.258-8.258v-8.258
	c0-4.561,3.697-8.258,8.258-8.258h8.258c4.561,0,8.258,3.697,8.258,8.258v8.258c0,4.56,3.697,8.258,8.258,8.258
	c4.561,0,8.258-3.698,8.258-8.258v-8.258c0-4.561,3.697-8.258,8.258-8.258h8.258c4.561,0,8.258,3.697,8.258,8.258v8.258
	c0,4.56,3.697,8.258,8.258,8.258c4.561,0,8.258-3.698,8.258-8.258v-8.258c0-4.561,3.697-8.258,8.258-8.258h8.258
	c4.561,0,8.258,3.697,8.258,8.258v8.258c0,4.56,3.697,8.258,8.258,8.258s8.258-3.698,8.258-8.258v-8.258
	c0-4.561,3.697-8.258,8.258-8.258h8.258c4.561,0,8.258,3.697,8.258,8.258v8.258c0,4.56,3.697,8.258,8.258,8.258
	s8.258-3.698,8.258-8.258v-8.258c0-4.561,3.697-8.258,8.258-8.258h8.258c4.561,0,8.258,3.697,8.258,8.258v8.258
	c0,4.56,3.698,8.258,8.258,8.258s8.258-3.698,8.258-8.258v-8.258c0-4.561,3.697-8.258,8.258-8.258h24.031
	C420.871,335.89,421.161,333.143,421.161,330.324z"/>
<g>
</g>
<g>
</g>
<g>
</g>
<g>
</g>
<g>
</g>
<g>
</g>
<g>
</g>
<g>
</g>
<g>
</g>
<g>
</g>
<g>
</g>
<g>
</g>
<g>
</g>
<g>
</g>
<g>
</g>
</svg>
