<?xml version="1.0" encoding="iso-8859-1"?>
<!-- Generator: Adobe Illustrator 19.0.0, SVG Export Plug-In . SVG Version: 6.00 Build 0)  -->
<svg version="1.1" id="Capa_1" xmlns="http://www.w3.org/2000/svg" xmlns:xlink="http://www.w3.org/1999/xlink" x="0px" y="0px"
	 viewBox="0 0 512 512" style="enable-background:new 0 0 512 512;" xml:space="preserve">
<circle style="fill:#FFE17D;" cx="256" cy="256" r="256"/>
<path style="fill:#FFD164;" d="M293.161,474.839c-141.385,0-256-114.615-256-256c0-61.227,21.521-117.411,57.376-161.463
	C36.863,104.316,0,175.842,0,256c0,141.385,114.615,256,256,256c80.159,0,151.685-36.864,198.626-94.538
	C410.573,453.317,354.389,474.839,293.161,474.839z"/>
<g>
	<path style="fill:#FAC97A;" d="M156.903,330.323c-26.265,0-49.343-13.627-62.561-34.195c-1.898-2.953-5.62-4.085-8.869-2.755
		c-21.434,8.773-36.437,30.011-35.911,54.725c0.643,30.185,24.871,55.079,55.03,56.483c33.181,1.545,60.569-24.901,60.569-57.742
		c0-3.632-0.341-7.182-0.987-10.626c-0.648-3.459-3.691-5.895-7.211-5.89C156.944,330.323,156.924,330.323,156.903,330.323z"/>
	<path style="fill:#FAC97A;" d="M355.097,330.323c26.265,0,49.343-13.627,62.561-34.195c1.898-2.953,5.62-4.085,8.869-2.755
		c21.434,8.773,36.437,30.011,35.911,54.725c-0.643,30.185-24.871,55.079-55.03,56.483c-33.182,1.545-60.569-24.901-60.569-57.742
		c0-3.632,0.341-7.182,0.987-10.626c0.648-3.459,3.691-5.895,7.211-5.89C355.056,330.323,355.077,330.323,355.097,330.323z"/>
</g>
<g>
	<path style="fill:#AA7346;" d="M107.371,167.218c-3.565,0-7.04-1.847-8.952-5.157c-2.847-4.931-1.169-11.234,3.758-14.089
		c1.306-0.758,32.46-18.581,77.831-26.028c5.556-0.931,10.927,2.887,11.855,8.512c0.927,5.629-2.887,10.935-8.516,11.859
		c-41.444,6.802-70.54,23.363-70.831,23.524C110.895,166.774,109.121,167.218,107.371,167.218z"/>
	<path style="fill:#AA7346;" d="M404.629,167.218c-1.75,0-3.524-0.444-5.145-1.379c-0.29-0.161-29.387-16.722-70.831-23.524
		c-5.629-0.923-9.444-6.23-8.516-11.859c0.927-5.625,6.266-9.431,11.855-8.512c45.371,7.448,76.524,25.27,77.831,26.028
		c4.927,2.855,6.605,9.157,3.758,14.089C411.67,165.371,408.194,167.218,404.629,167.218z"/>
	<path style="fill:#AA7346;" d="M297.282,390.194c-1.339,0-2.694-0.258-4.008-0.815c-23.387-9.871-51.161-9.871-74.548,0
		c-5.25,2.226-11.315-0.242-13.524-5.492c-2.218-5.25,0.242-11.306,5.492-13.524c28.5-12.048,62.113-12.048,90.613,0
		c5.25,2.218,7.71,8.274,5.492,13.524C305.137,387.831,301.307,390.194,297.282,390.194z"/>
</g>
<g>
	<circle style="fill:#FFFFFF;" cx="156.9" cy="256" r="57.806"/>
	<circle style="fill:#FFFFFF;" cx="355.1" cy="256" r="57.806"/>
</g>
<g>
	<path style="fill:#7D5046;" d="M156.903,237.419c-7.968,0-14.452,6.484-14.452,14.452v8.258c0,7.968,6.484,14.452,14.452,14.452
		s14.452-6.484,14.452-14.452v-8.258C171.355,243.903,164.871,237.419,156.903,237.419z"/>
	<path style="fill:#7D5046;" d="M355.097,237.419c-7.968,0-14.452,6.484-14.452,14.452v8.258c0,7.968,6.484,14.452,14.452,14.452
		s14.452-6.484,14.452-14.452v-8.258C369.549,243.903,363.065,237.419,355.097,237.419z"/>
</g>
<path style="fill:#FAB667;" d="M116.356,403.875c-25.153-24.041-45.458-53.108-59.182-85.657
	c-4.827,8.445-7.625,18.197-7.625,28.621c0,31.925,25.881,57.806,57.806,57.806C110.425,404.645,113.416,404.336,116.356,403.875z"
	/>
<g>
</g>
<g>
</g>
<g>
</g>
<g>
</g>
<g>
</g>
<g>
</g>
<g>
</g>
<g>
</g>
<g>
</g>
<g>
</g>
<g>
</g>
<g>
</g>
<g>
</g>
<g>
</g>
<g>
</g>
</svg>
