<?xml version="1.0" encoding="iso-8859-1"?>
<!-- Generator: Adobe Illustrator 19.0.0, SVG Export Plug-In . SVG Version: 6.00 Build 0)  -->
<svg version="1.1" id="Capa_1" xmlns="http://www.w3.org/2000/svg" xmlns:xlink="http://www.w3.org/1999/xlink" x="0px" y="0px"
	 viewBox="0 0 512 512" style="enable-background:new 0 0 512 512;" xml:space="preserve">
<circle style="fill:#FFE17D;" cx="256" cy="272.52" r="239.48"/>
<path style="fill:#FFD164;" d="M290.764,477.236C158.5,477.236,51.28,370.015,51.28,237.752c0-57.277,20.133-109.836,53.674-151.046
	c-53.953,43.912-88.438,110.823-88.438,185.81C16.516,404.779,123.737,512,256,512c74.987,0,141.899-34.486,185.811-88.439
	C400.601,457.103,348.041,477.236,290.764,477.236z"/>
<path style="fill:#A5CDFF;" d="M256,0C123.737,0,16.516,36.972,16.516,82.581c0,45.608,107.221,82.581,239.484,82.581
	s239.484-36.973,239.484-82.581C495.484,36.972,388.263,0,256,0z M256,115.613c-100.338,0-181.677-22.183-181.677-49.548
	S155.662,16.516,256,16.516S437.677,38.7,437.677,66.065S356.338,115.613,256,115.613z"/>
<g>
	<path style="fill:#AA7346;" d="M379.968,258.065c-3.024,0-6.016-1.319-8.056-3.855c-6.556-8.165-15.435-12.661-24.984-12.661
		c-9.548,0-18.427,4.496-24.984,12.661c-3.565,4.436-10.073,5.149-14.516,1.577c-4.444-3.569-5.153-10.069-1.581-14.512
		c10.411-12.948,25.379-20.371,41.081-20.371s30.669,7.423,41.081,20.371c3.573,4.444,2.863,10.944-1.581,14.512
		C384.524,257.319,382.234,258.065,379.968,258.065z"/>
	<path style="fill:#AA7346;" d="M198.258,258.065c-3.024,0-6.016-1.319-8.056-3.855c-6.556-8.165-15.435-12.661-24.984-12.661
		s-18.427,4.496-24.984,12.661c-3.573,4.436-10.073,5.149-14.516,1.577c-4.444-3.569-5.153-10.069-1.581-14.512
		c10.411-12.948,25.379-20.371,41.081-20.371s30.669,7.423,41.081,20.371c3.573,4.444,2.863,10.944-1.581,14.512
		C202.815,257.319,200.524,258.065,198.258,258.065z"/>
	<path style="fill:#AA7346;" d="M255.968,406.71c-42.5,0-82.661-20.105-107.435-53.782c-3.379-4.593-2.395-11.052,2.202-14.431
		c4.581-3.387,11.048-2.395,14.427,2.198c20.903,28.411,54.847,45.371,90.806,45.371s69.911-16.96,90.815-45.371
		c3.379-4.585,9.831-5.577,14.435-2.198c4.589,3.379,5.573,9.843,2.194,14.431C338.629,386.605,298.46,406.71,255.968,406.71z"/>
</g>
<path style="fill:#8CB4EB;" d="M49.548,66.065c0,36.486,92.431,66.065,206.452,66.065s206.452-29.578,206.452-66.065
	c0-35.302-86.53-64.133-195.42-65.968C263.373,0.039,259.7,0,256,0s-7.373,0.039-11.032,0.096
	C136.079,1.931,49.548,30.762,49.548,66.065z M437.677,66.065c0,27.365-81.34,49.548-181.677,49.548S74.323,93.429,74.323,66.065
	S155.662,16.516,256,16.516S437.677,38.7,437.677,66.065z"/>
<g>
</g>
<g>
</g>
<g>
</g>
<g>
</g>
<g>
</g>
<g>
</g>
<g>
</g>
<g>
</g>
<g>
</g>
<g>
</g>
<g>
</g>
<g>
</g>
<g>
</g>
<g>
</g>
<g>
</g>
</svg>
