<?xml version="1.0" encoding="iso-8859-1"?>
<!-- Generator: Adobe Illustrator 19.0.0, SVG Export Plug-In . SVG Version: 6.00 Build 0)  -->
<svg version="1.1" id="Capa_1" xmlns="http://www.w3.org/2000/svg" xmlns:xlink="http://www.w3.org/1999/xlink" x="0px" y="0px"
	 viewBox="0 0 512 512" style="enable-background:new 0 0 512 512;" xml:space="preserve">
<circle style="fill:#E6646E;" cx="256" cy="256" r="256"/>
<path style="fill:#DC4655;" d="M293.161,474.839c-141.385,0-256-114.615-256-256c0-61.227,21.521-117.411,57.376-161.463
	C36.863,104.316,0,175.842,0,256c0,141.385,114.615,256,256,256c80.159,0,151.685-36.864,198.626-94.538
	C410.573,453.317,354.389,474.839,293.161,474.839z"/>
<g>
	<path style="fill:#5A4650;" d="M322.093,404.716c-3.448,0-6.948-0.435-10.44-1.347c-35.266-9.185-76.04-9.185-111.306,0
		c-22.065,5.762-44.617-7.48-50.367-29.544s7.476-44.617,29.544-50.367c48.847-12.734,104.105-12.734,152.952,0
		c22.069,5.75,35.294,28.302,29.544,50.367C357.181,392.402,340.431,404.716,322.093,404.716z"/>
	<path style="fill:#5A4650;" d="M206.444,208.581c-1.403,0-2.823-0.29-4.194-0.895l-74.323-33.093
		c-5.202-2.319-7.548-8.423-5.226-13.629c2.315-5.21,8.395-7.54,13.629-5.234l74.323,33.093c5.202,2.319,7.548,8.423,5.226,13.629
		C214.169,206.294,210.395,208.581,206.444,208.581z"/>
	<path style="fill:#5A4650;" d="M305.556,208.581c-3.952,0-7.726-2.282-9.435-6.129c-2.323-5.206,0.024-11.31,5.226-13.629
		l74.323-33.093c5.234-2.306,11.315,0.02,13.629,5.234c2.323,5.206-0.024,11.31-5.226,13.629l-74.323,33.093
		C308.379,208.29,306.96,208.581,305.556,208.581z"/>
</g>
<path style="fill:#FFFFFF;" d="M387.92,109.065c-3.225-3.225-3.225-8.454,0-11.679l7.507-7.507c4.032-4.032,4.032-10.565,0-14.597
	s-10.565-4.032-14.597,0l-7.507,7.507c-3.225,3.225-8.454,3.225-11.679,0l-7.507-7.507c-4.032-4.032-10.565-4.032-14.597,0
	s-4.032,10.565,0,14.597l7.507,7.507c3.225,3.225,3.225,8.454,0,11.679l-7.507,7.507c-4.032,4.032-4.032,10.565,0,14.597
	c2.016,2.016,4.653,3.024,7.298,3.024s5.282-1.008,7.298-3.024l7.507-7.507c3.225-3.225,8.454-3.225,11.679,0l7.507,7.507
	c2.016,2.016,4.653,3.024,7.298,3.024s5.282-1.008,7.298-3.024c4.032-4.032,4.032-10.565,0-14.597L387.92,109.065z"/>
<path style="fill:#5A4650;" d="M169.29,272.516L169.29,272.516c-11.402,0-20.645-9.243-20.645-20.645v-16.516
	c0-11.402,9.243-20.645,20.645-20.645l0,0c11.402,0,20.645,9.243,20.645,20.645v16.516
	C189.935,263.273,180.692,272.516,169.29,272.516z"/>
<path style="fill:#6E5A64;" d="M169.29,214.71c-1.414,0-2.794,0.145-4.129,0.416v28.487c0,6.841,5.546,12.387,12.387,12.387
	s12.387-5.546,12.387-12.387v-8.258C189.935,223.953,180.693,214.71,169.29,214.71z"/>
<path style="fill:#5A4650;" d="M342.71,272.516L342.71,272.516c-11.402,0-20.645-9.243-20.645-20.645v-16.516
	c0-11.402,9.243-20.645,20.645-20.645l0,0c11.402,0,20.645,9.243,20.645,20.645v16.516
	C363.355,263.273,354.112,272.516,342.71,272.516z"/>
<path style="fill:#6E5A64;" d="M342.71,214.71c-1.414,0-2.794,0.145-4.129,0.416v28.487c0,6.841,5.546,12.387,12.387,12.387
	s12.387-5.546,12.387-12.387v-8.258C363.355,223.953,354.112,214.71,342.71,214.71z"/>
<g>
	<path style="fill:#FFFFFF;" d="M256,347.758c29.384,0,58.199,3.077,86.031,9.108c10.8,2.34,19.249-10.057,12.509-18.813
		c-5.338-6.934-12.916-12.212-22.064-14.595c-48.847-12.734-104.105-12.734-152.952,0c-9.148,2.383-16.726,7.662-22.063,14.595
		c-6.741,8.756,1.709,21.154,12.509,18.813C197.801,350.835,226.616,347.758,256,347.758z"/>
	<path style="fill:#FFFFFF;" d="M256,364.274c-29.739,0-58.86,3.277-86.888,9.697c-9.675,2.216-13.147,14.616-5.564,21.019
		c9.839,8.307,23.371,11.886,36.799,8.379c35.266-9.185,76.04-9.185,111.306,0c3.492,0.911,6.992,1.347,10.44,1.347
		c9.887,0,19.273-3.603,26.587-9.832c7.495-6.384,3.917-18.686-5.679-20.887C314.938,367.56,285.778,364.274,256,364.274z"/>
</g>
<g>
</g>
<g>
</g>
<g>
</g>
<g>
</g>
<g>
</g>
<g>
</g>
<g>
</g>
<g>
</g>
<g>
</g>
<g>
</g>
<g>
</g>
<g>
</g>
<g>
</g>
<g>
</g>
<g>
</g>
</svg>
