<?xml version="1.0" encoding="iso-8859-1"?>
<!-- Generator: Adobe Illustrator 19.0.0, SVG Export Plug-In . SVG Version: 6.00 Build 0)  -->
<svg version="1.1" id="Capa_1" xmlns="http://www.w3.org/2000/svg" xmlns:xlink="http://www.w3.org/1999/xlink" x="0px" y="0px"
	 viewBox="0 0 512 512" style="enable-background:new 0 0 512 512;" xml:space="preserve">
<path style="fill:#FFD164;" d="M167.119,91.925L49.156,10.915C37.405,2.74,21.655,12.928,24.292,26.998l34.72,186.242
	C77.165,159.663,116.513,115.883,167.119,91.925z"/>
<path style="fill:#FFC350;" d="M137.294,71.443c-6.521,3.72-12.834,7.757-18.941,12.065c-5.479,3.865-12.718,4.113-18.245,0.317
	L75.094,66.647c-5.182-3.605-12.128,0.888-10.965,7.093l7.638,40.971c1.136,6.093-0.572,12.299-4.417,17.16
	c-6.747,8.533-12.952,17.513-18.483,26.947l10.145,54.421c18.153-53.577,57.501-97.357,108.107-121.315L137.294,71.443z"/>
<path style="fill:#FFD164;" d="M344.88,91.925l117.963-81.011c11.751-8.174,27.501,2.014,24.863,16.083L452.988,213.24
	C434.834,159.663,395.486,115.883,344.88,91.925z"/>
<path style="fill:#FFC350;" d="M374.705,71.443c6.521,3.72,12.834,7.757,18.941,12.065c5.479,3.865,12.718,4.113,18.245,0.317
	l25.014-17.178c5.182-3.605,12.128,0.888,10.965,7.093l-7.638,40.971c-1.136,6.093,0.572,12.299,4.417,17.16
	c6.747,8.533,12.952,17.513,18.483,26.947l-10.145,54.421c-18.153-53.577-57.501-97.357-108.107-121.315L374.705,71.443z"/>
<circle style="fill:#FFE17D;" cx="256" cy="280" r="224"/>
<path style="fill:#FFD164;" d="M288.516,471.483c-123.712,0-224-100.288-224-224c0-53.573,18.831-102.734,50.204-141.28
	C64.255,147.276,32,209.861,32,280c0,123.711,100.288,224,224,224c70.139,0,132.725-32.256,173.797-82.721
	C391.251,452.651,342.09,471.483,288.516,471.483z"/>
<path style="fill:#9C6846;" d="M278.919,272H233.08c-6.783,0-10.488,7.911-6.146,13.121l22.92,27.504
	c3.198,3.838,9.093,3.838,12.292,0l22.92-27.504C289.407,279.911,285.702,272,278.919,272z"/>
<g>
	<path style="fill:#AA7346;" d="M184,304H8c-4.422,0-8-3.578-8-8s3.578-8,8-8h176c4.422,0,8,3.578,8,8S188.422,304,184,304z"/>
	<path style="fill:#AA7346;" d="M7.992,360c-3.867,0-7.273-2.812-7.891-6.75c-0.695-4.367,2.289-8.461,6.648-9.148l152-24
		c4.344-0.711,8.469,2.289,9.148,6.648c0.695,4.367-2.289,8.461-6.648,9.148l-152,24C8.828,359.968,8.406,360,7.992,360z"/>
	<path style="fill:#AA7346;" d="M503.999,304H328c-4.422,0-8-3.578-8-8s3.578-8,8-8h176c4.422,0,8,3.578,8,8
		S508.421,304,503.999,304z"/>
	<path style="fill:#AA7346;" d="M504.007,360c-0.414,0-0.836-0.031-1.258-0.102l-152-24c-4.359-0.688-7.344-4.781-6.648-9.148
		c0.688-4.359,4.789-7.352,9.148-6.648l152,24c4.359,0.688,7.344,4.781,6.648,9.148C511.281,357.187,507.874,360,504.007,360z"/>
</g>
<path style="fill:#7D5046;" d="M256,292c-12.018,0-22.899-4.83-30.84-12.64c-0.17,1.959,0.315,4.009,1.775,5.761l22.919,27.503
	c3.199,3.838,9.093,3.838,12.292,0l22.919-27.503c1.46-1.752,1.945-3.802,1.775-5.761C278.899,287.17,268.017,292,256,292z"/>
<path style="fill:#9C6846;" d="M256,352c-34.154,0-63.02,23.2-72.799,55.18c-0.847,2.77,1.52,5.428,4.267,4.818
	c21.205-4.708,44.318-7.312,68.532-7.312h-0.057c24.214,0,47.327,2.604,68.532,7.312c2.747,0.61,5.114-2.048,4.267-4.818
	C318.963,375.2,290.097,352,255.943,352"/>
<g>
	<path style="fill:#AA7346;" d="M112.039,201.992c-2.797,0-5.586-1.164-7.562-3.445c-3.609-4.172-3.172-10.477,0.992-14.094
		c1.406-1.227,35-30.062,84.172-42.164c5.383-1.312,10.781,1.961,12.102,7.32c1.32,5.367-1.961,10.781-7.32,12.102
		c-44.305,10.906-75.531,37.578-75.844,37.844C116.687,201.195,114.359,201.992,112.039,201.992z"/>
	<path style="fill:#AA7346;" d="M399.961,201.992c-2.32,0-4.648-0.797-6.539-2.438c-0.312-0.266-31.539-26.937-75.844-37.844
		c-5.359-1.32-8.641-6.734-7.32-12.102c1.32-5.359,6.727-8.633,12.102-7.32c49.172,12.102,82.766,40.937,84.172,42.164
		c4.164,3.617,4.602,9.922,0.992,14.094C405.546,200.828,402.757,201.992,399.961,201.992z"/>
</g>
<path style="fill:#7D5046;" d="M172,260L172,260c-11.046,0-20-8.954-20-20v-16c0-11.046,8.954-20,20-20l0,0c11.046,0,20,8.954,20,20
	v16C192,251.045,183.046,260,172,260z"/>
<path style="fill:#9C6846;" d="M172,204c-1.37,0-2.707,0.141-4,0.403V232c0,6.627,5.373,12,12,12s12-5.373,12-12v-8
	C192,212.954,183.046,204,172,204z"/>
<path style="fill:#7D5046;" d="M340,260L340,260c-11.046,0-20-8.954-20-20v-16c0-11.046,8.954-20,20-20l0,0c11.046,0,20,8.954,20,20
	v16C360,251.045,351.045,260,340,260z"/>
<path style="fill:#9C6846;" d="M340,204c-1.37,0-2.707,0.141-4,0.403V232c0,6.627,5.373,12,12,12s12-5.373,12-12v-8
	C360,212.954,351.046,204,340,204z"/>
<g>
	<path style="fill:#7D5046;" d="M255.943,352c0.01,0,0.019,0.001,0.029,0.001S255.99,352,256,352H255.943z"/>
	<path style="fill:#7D5046;" d="M194.338,384.481c18.445-7.16,39.394-11.223,61.633-11.229c-0.017,0-0.033-0.001-0.05-0.001h0.101
		c-0.017,0-0.033,0.001-0.05,0.001c22.239,0.006,43.189,4.069,61.635,11.23c-13.875-19.669-36.288-32.471-61.634-32.48
		C230.625,352.01,208.213,364.812,194.338,384.481z"/>
</g>
<path style="fill:#A5CDFF;" d="M176,448c26.51,0,48-21.49,48-48c0-39.567-32.616-90.006-44.076-106.508
	c-1.902-2.738-5.947-2.738-7.848,0C160.615,309.994,128,360.433,128,400C128,426.509,149.49,448,176,448z"/>
<path style="fill:#8CB4EB;" d="M150.628,408.719c0-29.068,17.595-77.965,31.482-112.034c-0.787-1.161-1.529-2.247-2.186-3.192
	c-1.902-2.739-5.947-2.739-7.848,0C160.616,309.993,128,360.432,128,399.999c0,24.62,18.607,44.677,42.485,47.444
	C158.501,438.717,150.628,424.678,150.628,408.719z"/>
<g>
</g>
<g>
</g>
<g>
</g>
<g>
</g>
<g>
</g>
<g>
</g>
<g>
</g>
<g>
</g>
<g>
</g>
<g>
</g>
<g>
</g>
<g>
</g>
<g>
</g>
<g>
</g>
<g>
</g>
</svg>
