<?xml version="1.0" encoding="iso-8859-1"?>
<!-- Generator: Adobe Illustrator 19.0.0, SVG Export Plug-In . SVG Version: 6.00 Build 0)  -->
<svg version="1.1" id="Capa_1" xmlns="http://www.w3.org/2000/svg" xmlns:xlink="http://www.w3.org/1999/xlink" x="0px" y="0px"
	 viewBox="0 0 512 512" style="enable-background:new 0 0 512 512;" xml:space="preserve">
<path style="fill:#FFD164;" d="M167.119,91.925L49.156,10.915C37.405,2.74,21.655,12.928,24.292,26.998l34.72,186.242
	C77.165,159.663,116.513,115.883,167.119,91.925z"/>
<path style="fill:#FFC350;" d="M137.294,71.443c-6.521,3.72-12.834,7.757-18.941,12.065c-5.479,3.865-12.718,4.113-18.245,0.317
	L75.094,66.647c-5.182-3.605-12.128,0.888-10.965,7.093l7.638,40.971c1.136,6.093-0.572,12.299-4.417,17.16
	c-6.747,8.533-12.952,17.513-18.483,26.947l10.145,54.421c18.153-53.577,57.501-97.357,108.107-121.315L137.294,71.443z"/>
<path style="fill:#FFD164;" d="M344.88,91.925l117.963-81.011c11.751-8.174,27.501,2.014,24.863,16.083L452.988,213.24
	C434.834,159.663,395.486,115.883,344.88,91.925z"/>
<path style="fill:#FFC350;" d="M374.705,71.443c6.521,3.72,12.834,7.757,18.941,12.065c5.479,3.865,12.718,4.113,18.245,0.317
	l25.014-17.178c5.182-3.605,12.128,0.888,10.965,7.093l-7.638,40.971c-1.136,6.093,0.572,12.299,4.417,17.16
	c6.747,8.533,12.952,17.513,18.483,26.947l-10.145,54.421c-18.153-53.577-57.501-97.357-108.107-121.315L374.705,71.443z"/>
<circle style="fill:#FFE17D;" cx="256" cy="280" r="224"/>
<path style="fill:#FFD164;" d="M288.516,471.483c-123.712,0-224-100.288-224-224c0-53.573,18.831-102.734,50.204-141.28
	C64.255,147.276,32,209.861,32,280c0,123.711,100.288,224,224,224c70.139,0,132.725-32.256,173.797-82.721
	C391.251,452.651,342.09,471.483,288.516,471.483z"/>
<path style="fill:#9C6846;" d="M256,349.793c-47.782,0-93.392-4.854-135.236-13.629c-5.42-1.137-10.091,3.818-8.419,8.981
	C131.642,404.756,188.602,448,256,448s124.358-43.244,143.655-102.854c1.672-5.164-2.999-10.118-8.419-8.981
	C349.392,344.939,303.782,349.793,256,349.793z"/>
<path style="fill:#7D5046;" d="M391.524,364.915c3.158-6.359,5.92-12.941,8.13-19.77c1.672-5.164-2.999-10.118-8.419-8.981
	c-41.844,8.775-87.454,13.629-135.236,13.629s-93.392-4.854-135.236-13.629c-5.42-1.137-10.091,3.817-8.419,8.981
	c2.21,6.829,4.972,13.411,8.13,19.77C161.747,373.622,207.617,378.5,256,378.5S350.253,373.622,391.524,364.915z"/>
<path style="fill:#9C6846;" d="M278.919,272H233.08c-6.783,0-10.488,7.911-6.146,13.121l22.92,27.504
	c3.198,3.838,9.093,3.838,12.292,0l22.92-27.504C289.407,279.911,285.702,272,278.919,272z"/>
<g>
	<path style="fill:#AA7346;" d="M376.007,242c-2.93,0-5.828-1.273-7.805-3.734C361.851,230.359,353.25,226,344,226
		s-17.852,4.359-24.203,12.266c-3.453,4.305-9.758,5-14.062,1.531c-4.305-3.461-4.992-9.758-1.531-14.062
		C314.289,213.195,328.789,206,344,206s29.711,7.195,39.797,19.734c3.461,4.305,2.773,10.602-1.531,14.062
		C380.421,241.281,378.203,242,376.007,242z"/>
	<path style="fill:#AA7346;" d="M199.976,242c-2.93,0-5.828-1.273-7.805-3.734C185.82,230.359,177.219,226,167.969,226
		s-17.852,4.359-24.203,12.266c-3.461,4.305-9.758,5-14.062,1.531c-4.305-3.461-4.992-9.758-1.531-14.062
		C138.258,213.195,152.758,206,167.969,206s29.711,7.195,39.797,19.734c3.461,4.305,2.773,10.602-1.531,14.062
		C204.39,241.281,202.172,242,199.976,242z"/>
	<path style="fill:#AA7346;" d="M184,280H8c-4.422,0-8-3.578-8-8s3.578-8,8-8h176c4.422,0,8,3.578,8,8S188.422,280,184,280z"/>
	<path style="fill:#AA7346;" d="M7.992,336c-3.867,0-7.273-2.812-7.891-6.75c-0.695-4.367,2.289-8.461,6.648-9.148l152-24
		c4.344-0.711,8.469,2.289,9.148,6.648c0.695,4.367-2.289,8.461-6.648,9.148l-152,24C8.828,335.968,8.406,336,7.992,336z"/>
	<path style="fill:#AA7346;" d="M503.999,280H328c-4.422,0-8-3.578-8-8s3.578-8,8-8h176c4.422,0,8,3.578,8,8
		S508.421,280,503.999,280z"/>
	<path style="fill:#AA7346;" d="M504.007,336c-0.414,0-0.836-0.031-1.258-0.102l-152-24c-4.359-0.688-7.344-4.781-6.648-9.148
		c0.688-4.359,4.789-7.352,9.148-6.648l152,24c4.359,0.688,7.344,4.781,6.648,9.148C511.281,333.187,507.874,336,504.007,336z"/>
</g>
<path style="fill:#FFFFFF;" d="M256,349.793c-30.35,0-59.811-1.973-88-5.651v39.543c0,7.127,8.617,10.697,13.657,5.657
	l10.497-10.498c1.656-1.655,3.936-2.486,6.269-2.289C217.177,378.143,236.392,379,256,379c19.606,0,38.814-0.865,57.567-2.453
	c2.333-0.197,4.614,0.634,6.27,2.29l10.506,10.506c5.04,5.04,13.657,1.47,13.657-5.657v-39.543
	C315.811,347.82,286.349,349.793,256,349.793z"/>
<path style="fill:#7D5046;" d="M256,292c-12.018,0-22.899-4.83-30.84-12.64c-0.17,1.959,0.315,4.009,1.775,5.761l22.919,27.503
	c3.199,3.838,9.093,3.838,12.292,0l22.919-27.503c1.46-1.752,1.945-3.802,1.775-5.761C278.899,287.17,268.017,292,256,292z"/>
<g>
</g>
<g>
</g>
<g>
</g>
<g>
</g>
<g>
</g>
<g>
</g>
<g>
</g>
<g>
</g>
<g>
</g>
<g>
</g>
<g>
</g>
<g>
</g>
<g>
</g>
<g>
</g>
<g>
</g>
</svg>
