<?xml version="1.0" encoding="iso-8859-1"?>
<!-- Generator: Adobe Illustrator 19.0.0, SVG Export Plug-In . SVG Version: 6.00 Build 0)  -->
<svg version="1.1" id="Capa_1" xmlns="http://www.w3.org/2000/svg" xmlns:xlink="http://www.w3.org/1999/xlink" x="0px" y="0px"
	 viewBox="0 0 512 512" style="enable-background:new 0 0 512 512;" xml:space="preserve">
<circle style="fill:#FFE17D;" cx="256" cy="256" r="256"/>
<path style="fill:#FFD164;" d="M293.161,474.839c-141.385,0-256-114.615-256-256c0-61.227,21.521-117.411,57.376-161.463
	C36.863,104.316,0,175.842,0,256c0,141.385,114.615,256,256,256c80.159,0,151.685-36.864,198.626-94.538
	C410.573,453.317,354.389,474.839,293.161,474.839z"/>
<g>
	<path style="fill:#AA7346;" d="M115.621,216.778c-3.79,0-7.435-2.093-9.242-5.71c-2.548-5.101-0.484-11.298,4.621-13.851
		l66.065-33.032c5.097-2.536,11.306-0.472,13.847,4.617c2.548,5.101,0.484,11.298-4.621,13.851l-66.065,33.032
		C118.75,216.423,117.169,216.778,115.621,216.778z"/>
	<path style="fill:#AA7346;" d="M396.379,216.778c-1.548,0-3.129-0.351-4.605-1.093l-66.065-33.032
		c-5.105-2.552-7.169-8.75-4.621-13.851c2.54-5.093,8.75-7.181,13.847-4.617L401,197.218c5.105,2.552,7.169,8.75,4.621,13.851
		C403.815,214.685,400.169,216.778,396.379,216.778z"/>
</g>
<path style="fill:#9C6846;" d="M255.941,404.675L255.941,404.675c-22.804,0-41.29-18.486-41.29-41.29V338.61
	c0-22.804,18.486-41.29,41.29-41.29l0,0c22.804,0,41.29,18.486,41.29,41.29v24.774C297.231,386.189,278.745,404.675,255.941,404.675
	z"/>
<path style="fill:#FFFFFF;" d="M215.486,330.323h80.91c-3.838-18.831-20.49-33.003-40.455-33.003h-0.001
	C235.975,297.32,219.324,311.491,215.486,330.323z"/>
<path style="fill:#7D5046;" d="M214.651,338.61v16.486h82.581V338.61c0-2.839-0.289-5.61-0.835-8.288h-80.91
	C214.94,333.001,214.651,335.771,214.651,338.61z"/>
<path style="fill:#A5CDFF;" d="M139.401,247.059c-5.239,31.155-19.87,31.794-23.734,67.42c-4.13,38.085,12.285,39.953,8.155,78.038
	c-3.827,35.287-18.172,36.366-23.548,66.615c21.903,16.817,46.599,30.145,73.278,39.22c1.356-37.065,16.383-38.983,16.383-79.533
	c0-42.461-16.516-42.461-16.516-84.922c0-42.432,16.516-42.432,16.516-84.864L139.401,247.059z"/>
<path style="fill:#AA7346;" d="M165.129,266.323c-15.685,0-30.661-7.423-41.073-20.367c-3.573-4.444-2.871-10.94,1.573-14.516
	c4.435-3.565,10.935-2.855,14.508,1.573c6.573,8.169,15.452,12.665,24.992,12.665c9.548,0,18.427-4.496,24.984-12.661
	c3.565-4.435,10.073-5.149,14.516-1.577c4.444,3.569,5.153,10.069,1.581,14.512C195.798,258.899,180.831,266.323,165.129,266.323z"
	/>
<path style="fill:#8CB4EB;" d="M185.407,451.055c-23.67-11.003-45.404-25.465-64.479-42.821
	c-5.705,20.804-16.221,25.958-20.653,50.898l0,0c21.903,16.817,46.599,30.145,73.278,39.219
	C174.42,474.657,180.863,465.299,185.407,451.055z"/>
<path style="fill:#A5CDFF;" d="M396.333,314.48c-3.863-35.626-18.494-36.266-23.734-67.42l-50.534,1.973
	c0,42.432,16.516,42.432,16.516,84.864c0,42.462-16.516,42.462-16.516,84.923c0,40.55,15.027,42.468,16.383,79.533
	c26.679-9.075,51.375-22.403,73.278-39.22c-5.376-30.249-19.721-31.328-23.548-66.615
	C384.048,354.433,400.463,352.565,396.333,314.48z"/>
<path style="fill:#8CB4EB;" d="M338.447,498.352c26.679-9.075,51.375-22.403,73.278-39.22c-0.811-4.564-1.843-8.408-2.995-11.861
	c-23.108,11.722-48.237,20.012-74.722,24.266C336.243,478.532,338.021,486.705,338.447,498.352z"/>
<path style="fill:#AA7346;" d="M346.871,266.323c-15.702,0-30.669-7.423-41.081-20.371c-3.573-4.444-2.863-10.944,1.581-14.512
	c4.444-3.573,10.952-2.859,14.516,1.577c6.556,8.165,15.435,12.661,24.984,12.661c9.548,0,18.419-4.496,24.992-12.661
	c3.548-4.435,10.073-5.149,14.508-1.577c4.444,3.573,5.145,10.073,1.573,14.512C377.532,258.899,362.565,266.323,346.871,266.323z"
	/>
<g>
</g>
<g>
</g>
<g>
</g>
<g>
</g>
<g>
</g>
<g>
</g>
<g>
</g>
<g>
</g>
<g>
</g>
<g>
</g>
<g>
</g>
<g>
</g>
<g>
</g>
<g>
</g>
<g>
</g>
</svg>
