<?xml version="1.0" encoding="iso-8859-1"?>
<!-- Generator: Adobe Illustrator 19.0.0, SVG Export Plug-In . SVG Version: 6.00 Build 0)  -->
<svg version="1.1" id="Capa_1" xmlns="http://www.w3.org/2000/svg" xmlns:xlink="http://www.w3.org/1999/xlink" x="0px" y="0px"
	 viewBox="0 0 512 512" style="enable-background:new 0 0 512 512;" xml:space="preserve">
<path style="fill:#5A4650;" d="M497.238,6.339c6.624-5.622,16.538,0.282,14.487,8.724c-6.402,26.351-24.792,76.129-50.933,121.194
	l-62.521-63.302C428.956,58.404,467.236,31.806,497.238,6.339z"/>
<g>
	<path style="fill:#6E5A64;" d="M502.555,10.371c1.09-2.084,1.349-4.189,1.039-6.132c5.086,0.302,9.574,4.888,8.132,10.823
		c-6.402,26.351-24.792,76.129-50.933,121.194l-27.798-28.145C465.05,71.496,490.692,33.046,502.555,10.371z"/>
	<path style="fill:#6E5A64;" d="M14.762,6.339C8.138,0.716-1.777,6.621,0.274,15.063c6.402,26.351,24.792,76.129,50.933,121.194
		l62.521-63.302C83.044,58.404,44.764,31.806,14.762,6.339z"/>
</g>
<path style="fill:#5A4650;" d="M9.445,10.371c-1.09-2.084-1.349-4.189-1.039-6.132C3.321,4.542-1.168,9.127,0.274,15.063
	c6.402,26.351,24.792,76.129,50.933,121.194l27.798-28.145C46.95,71.496,21.308,33.046,9.445,10.371z"/>
<path style="fill:#C864C8;" d="M463.495,174.584l0.055,0.054c-2.69-5.461-2.303-11.879,1.108-16.921
	c1.343-1.986,2.659-3.971,3.949-5.955c3.521-5.417,3.509-12.501-0.098-17.861c-19.056-28.32-43.611-52.63-72.152-71.379
	c-4.609-3.028-10.507-3.339-15.587-1.192c-5.107,2.159-10.081,4.157-14.891,6.011c-4.197,1.617-8.79,1.304-12.871-0.586l0.004,0.004
	C323.503,53.095,290.656,45.418,256,45.418s-67.503,7.676-97.012,21.339l0.004-0.004c-4.081,1.89-8.674,2.203-12.871,0.586
	c-4.81-1.854-9.784-3.852-14.891-6.011c-5.08-2.147-10.977-1.836-15.587,1.192c-28.541,18.749-53.095,43.059-72.152,71.379
	c-3.607,5.36-3.619,12.444-0.098,17.861c1.289,1.984,2.605,3.969,3.949,5.955c3.411,5.042,3.797,11.46,1.108,16.921l0.055-0.054
	C33.333,205.369,24.774,240,24.774,276.643c0,127.702,103.523,231.226,231.226,231.226s231.226-103.524,231.226-231.226
	C487.226,240.001,478.667,205.37,463.495,174.584z"/>
<path style="fill:#6E5A64;" d="M256,362.665c-41.086,0-79.726-4.352-113.437-12.004c-8.747-1.985-14.574,8.93-7.921,14.947
	c29.186,26.398,72.699,43.165,121.359,43.165s92.173-16.767,121.359-43.165c6.652-6.017,0.826-16.932-7.921-14.947
	C335.726,358.313,297.086,362.665,256,362.665z"/>
<g>
	<path style="fill:#5A4650;" d="M206.411,229.217c-1.403,0-2.823-0.282-4.194-0.895l-74.323-33.089
		c-5.202-2.315-7.548-8.419-5.226-13.629c2.323-5.202,8.395-7.573,13.629-5.226l74.323,33.089c5.202,2.315,7.548,8.419,5.226,13.629
		C214.137,226.934,210.363,229.217,206.411,229.217z"/>
	<path style="fill:#5A4650;" d="M305.524,229.217c-3.952,0-7.726-2.282-9.435-6.121c-2.323-5.21,0.024-11.315,5.226-13.629
		l74.323-33.089c5.226-2.347,11.315,0.024,13.629,5.226c2.323,5.21-0.024,11.315-5.226,13.629l-74.323,33.089
		C308.347,228.934,306.927,229.217,305.524,229.217z"/>
</g>
<path style="fill:#A54BBE;" d="M289.032,474.838c-127.703,0-231.226-103.524-231.226-231.226
	c0-71.657,32.602-135.692,83.774-178.104c-3.411-1.351-6.8-2.677-10.351-4.178c-5.08-2.147-10.977-1.836-15.587,1.192
	c-28.541,18.749-53.095,43.059-72.152,71.379c-3.607,5.36-3.619,12.444-0.098,17.861c1.289,1.984,2.605,3.969,3.949,5.955
	c3.411,5.042,3.797,11.46,1.108,16.921l0.055-0.054c-15.172,30.787-23.731,65.418-23.731,102.061
	c0,127.702,103.523,231.226,231.226,231.226c72.265,0,136.767-33.167,179.168-85.09C395.335,455.308,344.47,474.838,289.032,474.838
	z"/>
<path style="fill:#5A4650;" d="M169.29,293.161L169.29,293.161c-11.402,0-20.645-9.243-20.645-20.645v-16.517
	c0-11.402,9.243-20.645,20.645-20.645l0,0c11.402,0,20.645,9.243,20.645,20.645v16.516
	C189.935,283.917,180.692,293.161,169.29,293.161z"/>
<path style="fill:#6E5A64;" d="M169.29,235.354c-1.414,0-2.794,0.145-4.129,0.416v28.487c0,6.841,5.546,12.387,12.387,12.387
	s12.387-5.546,12.387-12.387v-8.258C189.935,244.597,180.693,235.354,169.29,235.354z"/>
<path style="fill:#5A4650;" d="M342.71,293.161L342.71,293.161c-11.402,0-20.645-9.243-20.645-20.645v-16.517
	c0-11.402,9.243-20.645,20.645-20.645l0,0c11.402,0,20.645,9.243,20.645,20.645v16.516
	C363.355,283.917,354.112,293.161,342.71,293.161z"/>
<path style="fill:#6E5A64;" d="M342.71,235.354c-1.414,0-2.794,0.145-4.129,0.416v28.487c0,6.841,5.546,12.387,12.387,12.387
	s12.387-5.546,12.387-12.387v-8.258C363.355,244.597,354.112,235.354,342.71,235.354z"/>
<path style="fill:#5A4650;" d="M158.597,383.176c30.679,3.118,63.409,4.807,97.403,4.807s66.724-1.689,97.403-4.807
	c8.75-5.212,16.794-11.091,23.956-17.568c6.652-6.017,0.826-16.932-7.921-14.947c-33.712,7.652-72.351,12.004-113.438,12.004
	s-79.726-4.352-113.438-12.004c-8.747-1.985-14.574,8.93-7.921,14.947C141.802,372.085,149.846,377.964,158.597,383.176z"/>
<g>
	<path style="fill:#FFFFFF;" d="M173.419,356.401v34.602c0,6.018,7.524,8.741,11.376,4.119l28.593-34.239
		C199.632,359.839,186.241,358.386,173.419,356.401z"/>
	<path style="fill:#FFFFFF;" d="M338.581,356.401v34.602c0,6.018-7.524,8.741-11.376,4.119l-28.593-34.239
		C312.368,359.839,325.759,358.386,338.581,356.401z"/>
</g>
<g>
</g>
<g>
</g>
<g>
</g>
<g>
</g>
<g>
</g>
<g>
</g>
<g>
</g>
<g>
</g>
<g>
</g>
<g>
</g>
<g>
</g>
<g>
</g>
<g>
</g>
<g>
</g>
<g>
</g>
</svg>
