<?xml version="1.0" encoding="iso-8859-1"?>
<!-- Generator: Adobe Illustrator 19.0.0, SVG Export Plug-In . SVG Version: 6.00 Build 0)  -->
<svg version="1.1" id="Capa_1" xmlns="http://www.w3.org/2000/svg" xmlns:xlink="http://www.w3.org/1999/xlink" x="0px" y="0px"
	 viewBox="0 0 512 512" style="enable-background:new 0 0 512 512;" xml:space="preserve">
<circle style="fill:#FFE17D;" cx="256" cy="256" r="256"/>
<g>
	<circle style="fill:#FAC97A;" cx="388.13" cy="297.29" r="57.806"/>
	<circle style="fill:#FAC97A;" cx="123.87" cy="297.29" r="57.806"/>
</g>
<path style="fill:#FFD164;" d="M293.161,474.839c-141.385,0-256-114.615-256-256c0-61.227,21.521-117.411,57.376-161.463
	C36.863,104.316,0,175.842,0,256c0,141.385,114.615,256,256,256c80.159,0,151.685-36.864,198.626-94.538
	C410.573,453.317,354.389,474.839,293.161,474.839z"/>
<g>
	<path style="fill:#AA7346;" d="M305.548,225.032c-2.476,0-4.952-0.879-6.927-2.669c-4.226-3.823-4.548-10.355-0.726-14.581
		c11.452-12.653,27.806-19.911,44.863-19.911c17.04,0,33.387,7.258,44.855,19.911c3.823,4.226,3.5,10.75-0.726,14.581
		c-4.21,3.823-10.734,3.508-14.581-0.726c-7.556-8.339-18.323-13.121-29.548-13.121c-11.234,0-22.008,4.782-29.556,13.121
		C311.161,223.887,308.363,225.032,305.548,225.032z"/>
	<path style="fill:#AA7346;" d="M206.452,225.032c-2.815,0-5.621-1.145-7.661-3.403c-7.524-8.331-18.266-13.113-29.468-13.113
		c-11.194,0-21.944,4.782-29.484,13.121c-3.823,4.218-10.363,4.548-14.581,0.726c-4.226-3.823-4.556-10.347-0.726-14.581
		c11.444-12.653,27.766-19.911,44.79-19.911s33.355,7.258,44.79,19.919c3.823,4.226,3.492,10.758-0.742,14.581
		C211.395,224.153,208.919,225.032,206.452,225.032z"/>
</g>
<path style="fill:#9C6846;" d="M256.059,332.852c-39.126,0-74.894-4.571-102.74-12.148c-5.984-1.629-10.279,5.987-5.752,10.226
	c26.676,24.981,65.336,40.742,108.492,40.742c43.157,0,81.816-15.76,108.493-40.742c4.527-4.239,0.232-11.854-5.752-10.226
	C330.953,328.281,295.184,332.852,256.059,332.852z"/>
<path style="fill:#7D5046;" d="M358.799,320.704c-27.846,7.578-63.615,12.148-102.74,12.148s-74.894-4.571-102.74-12.148
	c-5.984-1.629-10.279,5.987-5.752,10.226c5.503,5.154,11.629,9.802,18.086,14.114c27.736,6.404,58.228,10.053,90.406,10.053
	s62.67-3.649,90.406-10.053c6.458-4.311,12.583-8.96,18.086-14.114C369.079,326.691,364.784,319.075,358.799,320.704z"/>
<g>
</g>
<g>
</g>
<g>
</g>
<g>
</g>
<g>
</g>
<g>
</g>
<g>
</g>
<g>
</g>
<g>
</g>
<g>
</g>
<g>
</g>
<g>
</g>
<g>
</g>
<g>
</g>
<g>
</g>
</svg>
