<?xml version="1.0" encoding="iso-8859-1"?>
<!-- Generator: Adobe Illustrator 19.0.0, SVG Export Plug-In . SVG Version: 6.00 Build 0)  -->
<svg version="1.1" id="Capa_1" xmlns="http://www.w3.org/2000/svg" xmlns:xlink="http://www.w3.org/1999/xlink" x="0px" y="0px"
	 viewBox="0 0 512 512" style="enable-background:new 0 0 512 512;" xml:space="preserve">
<circle style="fill:#FFE17D;" cx="256" cy="256" r="256"/>
<path style="fill:#FFD164;" d="M293.161,474.839c-141.385,0-256-114.615-256-256c0-61.227,21.521-117.411,57.376-161.463
	C36.863,104.316,0,175.842,0,256c0,141.385,114.615,256,256,256c80.159,0,151.685-36.864,198.626-94.538
	C410.573,453.317,354.389,474.839,293.161,474.839z"/>
<g>
	<path style="fill:#AA7346;" d="M371.621,266.262c-3.024,0-6.016-1.319-8.056-3.855c-6.556-8.165-15.435-12.661-24.984-12.661
		c-9.548,0-18.427,4.496-24.984,12.661c-3.565,4.435-10.073,5.157-14.516,1.577c-4.444-3.569-5.153-10.069-1.581-14.512
		c10.411-12.948,25.379-20.371,41.081-20.371s30.669,7.423,41.081,20.371c3.573,4.444,2.863,10.944-1.581,14.512
		C376.177,265.516,373.887,266.262,371.621,266.262z"/>
	<path style="fill:#AA7346;" d="M388.121,224.976c-1.548,0-3.129-0.351-4.605-1.093c-0.298-0.145-31.726-15.427-77.968-15.427
		c-5.702,0-10.323-4.621-10.323-10.323s4.621-10.323,10.323-10.323c51.395,0,85.758,16.887,87.194,17.605
		c5.105,2.552,7.169,8.75,4.621,13.851C395.556,222.883,391.911,224.976,388.121,224.976z"/>
	<path style="fill:#AA7346;" d="M115.613,208.456c-2.702,0-5.403-1.056-7.435-3.157c-3.952-4.105-3.831-10.641,0.274-14.597
		c1.315-1.266,32.726-31.181,78.766-43.758c5.5-1.472,11.169,1.734,12.677,7.238c1.5,5.5-1.742,11.177-7.242,12.681
		c-41,11.198-69.589,38.427-69.879,38.702C120.774,207.496,118.194,208.456,115.613,208.456z"/>
	<path style="fill:#AA7346;" d="M256,439.742c-3.637,0.004-7.161-1.923-9.04-5.327c-2.758-4.992-0.952-11.27,4.04-14.028
		c5.363-2.968,11.863-5.21,18.153-7.375c5.073-1.75,14.024-4.835,17.161-7.315c-3.129-2.48-12.089-5.565-17.161-7.315
		c-14.137-4.871-31.734-10.931-31.734-26.831c0-15.887,17.597-21.94,31.734-26.806c5.065-1.742,13.992-4.81,17.137-7.282
		c-3.153-2.472-12.073-5.544-17.137-7.282c-6.266-2.157-12.742-4.383-18.097-7.331c-4.992-2.75-6.815-9.028-4.065-14.02
		c2.75-4.996,9.024-6.806,14.016-4.069c3.798,2.093,9.419,4.024,14.863,5.895c14.145,4.863,31.742,10.915,31.742,26.802
		c0,15.891-17.597,21.944-31.742,26.81c-5.065,1.742-14,4.815-17.145,7.29c3.137,2.476,12.081,5.56,17.153,7.306
		c14.137,4.871,31.734,10.931,31.734,26.831c0,15.899-17.597,21.96-31.734,26.835c-5.452,1.879-11.097,3.819-14.895,5.919
		C259.403,439.327,257.694,439.742,256,439.742z M287.202,338.379h0.081H287.202z"/>
</g>
<path style="fill:#E6646E;" d="M391.268,451.883c-17.802-22.382-59.952-82.472-35.913-123.319c9.293-15.79,27.578-24.8,45.781-22.72
	c14.784,1.689,26.646,9.457,34.089,20.142c3.051,4.38,8.578,6.19,13.629,4.464c12.322-4.211,26.481-3.455,39.399,3.93
	c15.906,9.093,25.317,27.175,23.467,45.403c-4.787,47.153-74.32,70.661-101.914,78.172
	C402.978,459.814,395.672,457.421,391.268,451.883z"/>
<path style="fill:#7D5046;" d="M169.29,280.774L169.29,280.774c-11.402,0-20.645-9.243-20.645-20.645v-16.516
	c0-11.402,9.243-20.645,20.645-20.645l0,0c11.402,0,20.645,9.243,20.645,20.645v16.516
	C189.935,271.531,180.692,280.774,169.29,280.774z"/>
<path style="fill:#9C6846;" d="M169.29,222.968c-1.414,0-2.794,0.145-4.129,0.416v28.487c0,6.841,5.546,12.387,12.387,12.387
	s12.387-5.546,12.387-12.387v-8.258C189.935,232.211,180.693,222.968,169.29,222.968z"/>
<path style="fill:#DC4655;" d="M388.438,336.823c7.447-12.653,20.685-20.836,35.011-22.564c-6.291-4.403-13.795-7.442-22.314-8.414
	c-18.203-2.08-36.488,6.929-45.78,22.72c-24.039,40.846,18.111,100.937,35.913,123.319c4.404,5.537,11.71,7.93,18.536,6.072
	c3.013-0.82,6.595-1.868,10.468-3.079C400.96,429.415,366.079,374.815,388.438,336.823z"/>
<g>
</g>
<g>
</g>
<g>
</g>
<g>
</g>
<g>
</g>
<g>
</g>
<g>
</g>
<g>
</g>
<g>
</g>
<g>
</g>
<g>
</g>
<g>
</g>
<g>
</g>
<g>
</g>
<g>
</g>
</svg>
