<?xml version="1.0" encoding="iso-8859-1"?>
<!-- Generator: Adobe Illustrator 19.0.0, SVG Export Plug-In . SVG Version: 6.00 Build 0)  -->
<svg version="1.1" id="Capa_1" xmlns="http://www.w3.org/2000/svg" xmlns:xlink="http://www.w3.org/1999/xlink" x="0px" y="0px"
	 viewBox="0 0 512 512" style="enable-background:new 0 0 512 512;" xml:space="preserve">
<circle style="fill:#FFE17D;" cx="256.002" cy="239.48" r="239.48"/>
<path style="fill:#FFD164;" d="M290.766,444.204c-132.264,0-239.484-107.221-239.484-239.484
	c0-57.277,20.133-109.836,53.674-151.046c-53.953,43.912-88.438,110.823-88.438,185.81c0,132.263,107.22,239.484,239.484,239.484
	c74.987,0,141.899-34.486,185.811-88.439C400.603,424.07,348.043,444.204,290.766,444.204z"/>
<g>
	<path style="fill:#AA7346;" d="M305.494,224.976c-2.476,0-4.952-0.879-6.927-2.669c-4.226-3.823-4.556-10.347-0.726-14.581
		c11.444-12.653,27.79-19.911,44.855-19.911c17.056,0,33.411,7.258,44.863,19.911c3.823,4.226,3.5,10.758-0.726,14.581
		c-4.218,3.831-10.742,3.508-14.581-0.726c-7.548-8.339-18.323-13.121-29.556-13.121c-11.234,0-22.008,4.782-29.548,13.121
		C311.115,223.831,308.308,224.976,305.494,224.976z"/>
	<path style="fill:#AA7346;" d="M132.131,224.976c-2.468,0-4.944-0.879-6.919-2.661c-4.226-3.823-4.565-10.347-0.742-14.581
		c11.427-12.661,27.758-19.919,44.79-19.919s33.355,7.258,44.798,19.919c3.823,4.226,3.492,10.758-0.742,14.581
		c-4.226,3.823-10.75,3.5-14.581-0.742c-7.532-8.331-18.274-13.113-29.476-13.113s-21.944,4.782-29.468,13.113
		C137.752,223.831,134.946,224.976,132.131,224.976z"/>
</g>
<path style="fill:#FFD164;" d="M354.456,435.388l-82.9,59.214c-37.151,26.537-88.042,22.325-120.326-9.958l0,0
	c-27.91-27.91-35.261-70.351-18.364-106.022l32.243-68.068c3.119-6.585,10.663-9.804,17.575-7.5l0,0
	c5.883,1.961,9.851,7.466,9.851,13.667v33.539l69.313-94.518c5.895-8.038,17.567-8.931,24.615-1.882l0,0
	c5.079,5.079,6.225,12.887,2.82,19.211l-45.506,84.51l69.045-69.045c6.339-6.339,16.618-6.339,22.957,0l0,0
	c5.937,5.937,6.367,15.421,0.992,21.871l-63.713,76.456l76.781-51.187c6.433-4.289,14.999-3.44,20.466,2.026l0,0
	c6.744,6.744,6.241,17.823-1.085,23.929l-74.2,61.833l45.62-15.207c9.969-3.323,20.263,4.097,20.263,14.605l0,0
	C360.903,427.833,358.502,432.498,354.456,435.388z"/>
<g>
	<path style="fill:#FFC350;" d="M180.822,483.291c-27.91-27.91-35.261-70.351-18.364-106.022l29.726-62.756
		c-0.83-5.248-4.342-9.74-9.5-11.46c-6.912-2.304-14.456,0.915-17.575,7.5l-32.243,68.068
		c-16.897,35.671-9.545,78.112,18.364,106.022h0.001c22.861,22.861,55.042,31.568,85.079,25.324
		C215.921,507.65,196.244,498.713,180.822,483.291z"/>
	<path style="fill:#FFC350;" d="M261.848,255.741l-67.798,91.782c-3.812,5.161-2.79,12.423,2.299,16.331l0,0
		c5.447,4.182,13.302,2.834,17.042-2.926l70.736-108.939C277.049,247.123,267.136,248.53,261.848,255.741z"/>
	<path style="fill:#FFC350;" d="M335.427,288.246c-6.362-6.014-16.375-5.941-22.604,0.288l-70.749,70.915
		c-3.552,3.56-3.94,9.192-0.909,13.205l0,0c3.787,5.016,11.189,5.385,15.458,0.772L335.427,288.246z"/>
	<path style="fill:#FFC350;" d="M370.305,337.701c-5.467-5.467-14.033-6.316-20.466-2.027l-75.495,50.39
		c-3.964,2.646-5.421,7.778-3.438,12.111l0,0c2.562,5.6,9.622,7.43,14.581,3.779l85.737-63.114
		C370.91,338.464,370.659,338.054,370.305,337.701z"/>
	<path style="fill:#FFC350;" d="M340.64,408.256l-45.37,15.079c-5.333,1.773-8.354,7.402-6.882,12.826l0,0
		c1.755,6.47,9.003,9.703,14.99,6.686l55.286-27.859C355.116,409.091,347.823,405.862,340.64,408.256z"/>
</g>
<g>
</g>
<g>
</g>
<g>
</g>
<g>
</g>
<g>
</g>
<g>
</g>
<g>
</g>
<g>
</g>
<g>
</g>
<g>
</g>
<g>
</g>
<g>
</g>
<g>
</g>
<g>
</g>
<g>
</g>
</svg>
