<?xml version="1.0" encoding="iso-8859-1"?>
<!-- Generator: Adobe Illustrator 19.0.0, SVG Export Plug-In . SVG Version: 6.00 Build 0)  -->
<svg version="1.1" id="Capa_1" xmlns="http://www.w3.org/2000/svg" xmlns:xlink="http://www.w3.org/1999/xlink" x="0px" y="0px"
	 viewBox="0 0 512 512" style="enable-background:new 0 0 512 512;" xml:space="preserve">
<circle style="fill:#FFE17D;" cx="256" cy="256" r="256"/>
<g>
	<path style="fill:#FFD164;" d="M109.188,214.71h95.431c10.622,0,19.558,6.677,23.109,15.938l1.602-22.431
		c1.024-14.341-10.334-26.539-24.711-26.539h-95.431c-14.378,0-25.735,12.198-24.711,26.539l1.602,22.43
		C89.629,221.387,98.566,214.71,109.188,214.71z"/>
	<path style="fill:#FFD164;" d="M402.579,214.71h-95.431c-10.622,0-19.558,6.677-23.109,15.938l-1.602-22.431
		c-1.024-14.341,10.334-26.539,24.711-26.539h95.431c14.378,0,25.735,12.198,24.711,26.539l-1.602,22.43
		C422.138,221.387,413.201,214.71,402.579,214.71z"/>
	<path style="fill:#FFD164;" d="M293.161,474.839c-141.385,0-256-114.615-256-256c0-61.227,21.521-117.411,57.376-161.463
		C36.863,104.316,0,175.842,0,256c0,141.385,114.615,256,256,256c80.159,0,151.685-36.864,198.626-94.538
		C410.573,453.317,354.389,474.839,293.161,474.839z"/>
</g>
<path style="fill:#FFFFFF;" d="M214.71,378.065v18.323c0,9.122,7.395,16.516,16.516,16.516h8.258c5.172,0,9.789-2.378,12.818-6.1
	c1.901-2.337,5.495-2.337,7.397,0c3.028,3.722,7.645,6.1,12.818,6.1h8.258c9.122,0,16.516-7.395,16.516-16.516v-18.323H214.71z"/>
<g>
	<path style="fill:#AA7346;" d="M256.032,390.222c-42.113,0-82.048-16.75-106.815-44.81c-3.766-4.274-3.363-10.798,0.911-14.569
		c4.266-3.778,10.798-3.367,14.573,0.907c20.903,23.685,55.048,37.827,91.331,37.827c36.29,0,70.427-14.141,91.323-37.827
		c3.774-4.274,10.282-4.681,14.573-0.911c4.274,3.774,4.685,10.298,0.911,14.573C338.081,373.468,298.153,390.222,256.032,390.222z"
		/>
	<path style="fill:#AA7346;" d="M196.371,138.484c-55.161,9.875-92.952,33.468-94.532,34.468c-3.101,1.961-4.613,5.31-4.618,8.726
		h32.111c15.305-7.324,40.248-17.423,70.684-22.871c5.605-1.004,9.347-6.367,8.339-11.98
		C207.347,141.222,202.081,137.48,196.371,138.484z"/>
	<path style="fill:#AA7346;" d="M414.779,181.677c-0.005-3.416-1.517-6.765-4.618-8.726c-1.581-1-39.371-24.593-94.532-34.468
		c-5.726-1-10.984,2.738-11.984,8.343c-1.008,5.613,2.734,10.976,8.339,11.98c30.436,5.448,55.379,15.547,70.684,22.871H414.779z"/>
</g>
<g>
	<path style="fill:#5A4650;" d="M8.258,189.935c-4.565,0-8.258,3.698-8.258,8.258s3.694,8.258,8.258,8.258h74.323v-16.516
		L8.258,189.935L8.258,189.935z"/>
	<path style="fill:#5A4650;" d="M235.782,216.903l-13.468-9.556c7.734-10.903,20.331-17.411,33.685-17.411
		c13.242,0,25.774,6.423,33.524,17.181l-13.403,9.653c-4.653-6.46-12.177-10.319-20.121-10.319
		C247.984,206.452,240.427,210.359,235.782,216.903z"/>
</g>
<path style="fill:#6E5A64;" d="M184.524,305.548h-47.548c-30.185,0-55.508-23.585-57.661-53.69l-3.073-43.052
	c-0.653-9.117,2.54-18.177,8.766-24.867c6.226-6.685,15.04-10.52,24.177-10.52h95.435c9.137,0,17.952,3.835,24.177,10.52
	c6.226,6.69,9.419,15.75,8.766,24.867l-3.621,50.726C232.097,285.335,210.387,305.548,184.524,305.548z M109.185,189.935
	c-4.637,0-8.927,1.867-12.089,5.258c-3.153,3.395-4.718,7.81-4.387,12.435l3.073,43.052c1.54,21.504,19.637,38.351,41.194,38.351
	h47.548c17.242,0,31.718-13.476,32.952-30.677l3.621-50.726c0.331-4.625-1.234-9.04-4.387-12.435
	c-3.161-3.391-7.452-5.258-12.089-5.258L109.185,189.935L109.185,189.935z"/>
<path style="fill:#5A4650;" d="M503.742,206.452c4.565,0,8.258-3.698,8.258-8.258s-3.694-8.258-8.258-8.258h-74.323v16.516
	L503.742,206.452L503.742,206.452z"/>
<path style="fill:#6E5A64;" d="M375.024,305.548h-47.548c-25.863,0-47.573-20.214-49.419-46.016l-3.621-50.726
	c-0.653-9.117,2.54-18.177,8.766-24.867c6.226-6.685,15.04-10.52,24.177-10.52h95.435c9.137,0,17.952,3.835,24.177,10.52
	c6.226,6.69,9.419,15.75,8.766,24.867l-3.073,43.052C430.532,281.964,405.21,305.548,375.024,305.548z M307.379,189.935
	c-4.637,0-8.927,1.867-12.089,5.258c-3.153,3.395-4.718,7.81-4.387,12.435l3.621,50.726c1.234,17.202,15.71,30.677,32.952,30.677
	h47.548c21.556,0,39.653-16.847,41.194-38.351l3.073-43.052c0.331-4.625-1.234-9.04-4.387-12.435
	c-3.161-3.391-7.452-5.258-12.089-5.258L307.379,189.935L307.379,189.935z"/>
<path style="fill:#7D5046;" d="M169.29,264.258L169.29,264.258c-11.402,0-20.645-9.243-20.645-20.645v-16.516
	c0-11.402,9.243-20.645,20.645-20.645l0,0c11.402,0,20.645,9.243,20.645,20.645v16.516
	C189.935,255.015,180.692,264.258,169.29,264.258z"/>
<path style="fill:#9C6846;" d="M169.29,206.452c-1.414,0-2.794,0.145-4.129,0.416v28.487c0,6.841,5.546,12.387,12.387,12.387
	s12.387-5.546,12.387-12.387v-8.258C189.935,215.695,180.693,206.452,169.29,206.452z"/>
<path style="fill:#7D5046;" d="M342.71,264.258L342.71,264.258c-11.402,0-20.645-9.243-20.645-20.645v-16.516
	c0-11.402,9.243-20.645,20.645-20.645l0,0c11.402,0,20.645,9.243,20.645,20.645v16.516
	C363.355,255.015,354.112,264.258,342.71,264.258z"/>
<path style="fill:#9C6846;" d="M342.71,206.452c-1.414,0-2.794,0.145-4.129,0.416v28.487c0,6.841,5.546,12.387,12.387,12.387
	s12.387-5.546,12.387-12.387v-8.258C363.355,215.695,354.112,206.452,342.71,206.452z"/>
<g>
</g>
<g>
</g>
<g>
</g>
<g>
</g>
<g>
</g>
<g>
</g>
<g>
</g>
<g>
</g>
<g>
</g>
<g>
</g>
<g>
</g>
<g>
</g>
<g>
</g>
<g>
</g>
<g>
</g>
</svg>
