<?xml version="1.0" encoding="iso-8859-1"?>
<!-- Generator: Adobe Illustrator 19.0.0, SVG Export Plug-In . SVG Version: 6.00 Build 0)  -->
<svg version="1.1" id="Capa_1" xmlns="http://www.w3.org/2000/svg" xmlns:xlink="http://www.w3.org/1999/xlink" x="0px" y="0px"
	 viewBox="0 0 512 512" style="enable-background:new 0 0 512 512;" xml:space="preserve">
<path style="fill:#B67F5F;" d="M316.4,107.825c-8.84-33.229-38.022-55.484-59.775-67.91c-8.773-5.011-19.58,2.049-18.412,12.084
	c1.768,15.185-1.474,33.615-23.424,42.996l-37.417,16.926c-25.325,10.362-37.457,39.296-27.095,64.617
	c3.199,7.826,9.592,16.056,15.681,21.087l153.366-61.931C320.221,127.771,318.588,116.049,316.4,107.825z"/>
<path style="fill:#A06E50;" d="M150.686,177.357c3.298,7.577,9.394,15.412,15.272,20.269l153.367-61.931
	c0.852-7.524-0.601-18.389-2.621-26.515c-0.617,0.228-1.241,0.4-1.854,0.651L150.686,177.357z"/>
<path style="fill:#B67F5F;" d="M384.696,169.585c-12.188-29.807-46.226-44.077-76.04-31.885l-195.879,80.573
	c-29.8,12.192-44.077,46.233-31.885,76.04c9.235,22.576,31.01,36.241,53.984,36.241c7.352,0,14.829-1.402,22.056-4.356
	l195.879-80.572C382.611,233.433,396.888,199.391,384.696,169.585z"/>
<g>
	<path style="fill:#A06E50;" d="M134.876,330.552c7.352,0,14.829-1.402,22.056-4.356l195.879-80.572
		c26.958-11.029,41.138-39.935,34.585-67.415L84.625,301.76C95.223,319.84,114.563,330.552,134.876,330.552z"/>
	<path style="fill:#A06E50;" d="M66.093,473.737H445.94c36.484,0,66.06-29.576,66.06-66.06l0,0c0-36.484-29.576-66.06-66.06-66.06
		H66.093V473.737z"/>
</g>
<path style="fill:#8C5A41;" d="M325.779,408.888l149.16-60.497c-8.764-4.296-18.581-6.774-28.999-6.774H66.093v132.12H445.94
	c24.437,0,45.723-13.304,57.151-33.03H331.986C313.847,440.707,308.969,415.706,325.779,408.888z"/>
<path style="fill:#B67F5F;" d="M460.39,246.655c-13.81-33.772-52.376-49.94-86.156-36.127L41.062,346.52
	c-33.764,13.814-49.94,52.384-36.127,86.156c10.463,25.579,35.135,41.062,61.165,41.062c8.33,0,16.801-1.589,24.99-4.935
	l333.173-135.991C458.028,318.997,474.204,280.427,460.39,246.655z"/>
<path style="fill:#A06E50;" d="M139.26,419.257c-8.189,3.347-16.66,4.935-24.99,4.935c-26.031,0-50.702-15.483-61.165-41.062
	c-5.435-13.287-6.166-27.3-3.072-40.272l-8.97,3.662c-33.764,13.814-49.94,52.384-36.127,86.156
	c10.463,25.579,35.135,41.062,61.165,41.062c8.33,0,16.801-1.589,24.99-4.935l333.173-135.991
	c20.48-8.379,34.428-25.883,39.199-45.884L139.26,419.257z"/>
<g>
	<path style="fill:#FFFFFF;" d="M158.411,357.505c-8.202-2.042-13.562,8.182-7.51,14.082c28.351,27.642,64.91,44.347,104.933,44.347
		s76.582-16.706,104.933-44.348c6.052-5.9,0.692-16.124-7.51-14.082c-30.341,7.553-63.129,11.724-97.423,11.724
		S188.752,365.058,158.411,357.505z"/>
	<path style="fill:#FFFFFF;" d="M342.721,325.102L342.721,325.102c-15.962,0-28.901-12.94-28.901-28.901v-16.515
		c0-15.962,12.94-28.901,28.901-28.901l0,0c15.962,0,28.901,12.94,28.901,28.901V296.2
		C371.622,312.162,358.682,325.102,342.721,325.102z"/>
	<path style="fill:#FFFFFF;" d="M185.828,325.102L185.828,325.102c-15.962,0-28.901-12.94-28.901-28.901v-16.515
		c0-15.962,12.94-28.901,28.901-28.901l0,0c15.962,0,28.901,12.94,28.901,28.901V296.2
		C214.729,312.162,201.789,325.102,185.828,325.102z"/>
</g>
<g>
	<path style="fill:#5A4650;" d="M342.721,302.394c-5.701,0-10.322-4.621-10.322-10.322v-8.258c0-5.701,4.621-10.322,10.322-10.322
		s10.322,4.621,10.322,10.322v8.258C353.043,297.773,348.422,302.394,342.721,302.394z"/>
	<path style="fill:#5A4650;" d="M185.828,302.394c-5.701,0-10.322-4.621-10.322-10.322v-8.258c0-5.701,4.621-10.322,10.322-10.322
		s10.322,4.621,10.322,10.322v8.258C196.149,297.773,191.529,302.394,185.828,302.394z"/>
</g>
<g>
</g>
<g>
</g>
<g>
</g>
<g>
</g>
<g>
</g>
<g>
</g>
<g>
</g>
<g>
</g>
<g>
</g>
<g>
</g>
<g>
</g>
<g>
</g>
<g>
</g>
<g>
</g>
<g>
</g>
</svg>
