<?xml version="1.0" encoding="iso-8859-1"?>
<!-- Generator: Adobe Illustrator 19.0.0, SVG Export Plug-In . SVG Version: 6.00 Build 0)  -->
<svg version="1.1" id="Capa_1" xmlns="http://www.w3.org/2000/svg" xmlns:xlink="http://www.w3.org/1999/xlink" x="0px" y="0px"
	 viewBox="0 0 512 512" style="enable-background:new 0 0 512 512;" xml:space="preserve">
<circle style="fill:#FFE17D;" cx="256" cy="256" r="256"/>
<path style="fill:#9C6846;" d="M255.941,305.309c-49.343,0-96.443-5.728-139.654-16.082c-5.597-1.341-10.421,4.505-8.695,10.598
	c19.928,70.339,78.749,121.367,148.349,121.367s128.42-51.027,148.349-121.367c1.726-6.093-3.097-11.939-8.695-10.598
	C352.384,299.581,305.284,305.309,255.941,305.309z"/>
<path style="fill:#7D5046;" d="M256.023,345.657c45.781,0,90.941-4.676,135.379-13.046c5.224-10.341,9.624-21.272,12.887-32.788
	c1.726-6.094-3.097-11.939-8.695-10.598c-43.211,10.354-90.311,16.082-139.654,16.082c-49.344,0-96.444-5.728-139.654-16.082
	c-5.597-1.341-10.421,4.504-8.695,10.598c3.259,11.504,7.654,22.423,12.871,32.755C164.959,340.972,210.18,345.657,256.023,345.657z
	"/>
<path style="fill:#BEE86E;" d="M322.065,301.763c-21.477,2.292-43.55,3.546-66.123,3.546c-22.532,0-44.566-1.25-66.006-3.534v94.642
	c0,36.486,29.578,66.065,66.065,66.065s66.065-29.578,66.065-66.065v-94.654H322.065z"/>
<path style="fill:#FFD164;" d="M293.161,474.839c-141.385,0-256-114.615-256-256c0-61.227,21.521-117.411,57.376-161.463
	C36.863,104.316,0,175.842,0,256c0,141.385,114.615,256,256,256c80.159,0,151.685-36.864,198.626-94.538
	C410.573,453.317,354.389,474.839,293.161,474.839z"/>
<g>
	<path style="fill:#AA7346;" d="M107.419,150.702c-2.887,0-5.766-1.202-7.806-3.556c-3.726-4.306-3.274-10.815,1.024-14.548
		c1.452-1.266,36.129-31.032,86.887-43.524c5.556-1.339,11.129,2.024,12.492,7.556c1.363,5.54-2.024,11.129-7.556,12.492
		c-45.734,11.258-77.968,38.79-78.29,39.065C112.218,149.879,109.815,150.702,107.419,150.702z"/>
	<path style="fill:#AA7346;" d="M404.637,150.702c-2.395,0-4.798-0.823-6.75-2.516c-0.323-0.274-32.556-27.806-78.29-39.065
		c-5.532-1.363-8.919-6.952-7.556-12.492c1.363-5.532,6.935-8.895,12.492-7.556c50.758,12.492,85.435,42.258,86.887,43.524
		c4.298,3.734,4.75,10.242,1.024,14.548C410.403,149.5,407.524,150.702,404.637,150.702z"/>
	<path style="fill:#AA7346;" d="M187.871,183.226c0,5.702,4.621,10.323,10.323,10.323s10.323-4.621,10.323-10.323
		c0-13.828-13.657-24.678-33.032-27.566v-7.015c0-5.702-4.621-10.323-10.323-10.323s-10.323,4.621-10.323,10.323v7.015
		c-19.376,2.888-33.032,13.738-33.032,27.566c0,19.232,17.742,26.713,33.032,31.123v21.927c-7.848-1.812-12.094-5.292-12.387-6.622
		c-0.016-5.694-4.629-10.298-10.323-10.298c-5.702,0-10.323,4.621-10.323,10.323c0,13.828,13.657,24.678,33.032,27.566v7.015
		c0,5.702,4.621,10.323,10.323,10.323s10.323-4.621,10.323-10.323v-7.015c19.376-2.888,33.032-13.738,33.032-27.566
		c0-19.232-17.742-26.713-33.032-31.123v-21.929C183.361,178.442,187.607,181.934,187.871,183.226z M142.452,183.266
		c0.264-1.321,4.51-4.821,12.387-6.64v15.978C144.869,189.071,142.452,186.218,142.452,183.266z M187.871,229.637
		c-0.264,1.321-4.51,4.821-12.387,6.64v-15.978C185.454,223.832,187.871,226.685,187.871,229.637z"/>
	<path style="fill:#AA7346;" d="M357.161,198.554v-21.929c7.877,1.817,12.123,5.309,12.387,6.6c0,5.702,4.621,10.323,10.323,10.323
		s10.323-4.621,10.323-10.323c0-13.828-13.657-24.678-33.032-27.566v-7.015c0-5.702-4.621-10.323-10.323-10.323
		s-10.323,4.621-10.323,10.323v7.015c-19.376,2.888-33.032,13.738-33.032,27.566c0,19.232,17.742,26.713,33.032,31.123v21.927
		c-7.848-1.812-12.094-5.292-12.387-6.622c-0.016-5.694-4.629-10.298-10.323-10.298c-5.702,0-10.323,4.621-10.323,10.323
		c0,13.828,13.657,24.678,33.032,27.566v7.015c0,5.702,4.621,10.323,10.323,10.323s10.323-4.621,10.323-10.323v-7.015
		c19.376-2.888,33.032-13.738,33.032-27.566C390.194,210.446,372.451,202.964,357.161,198.554z M324.129,183.266
		c0.264-1.321,4.51-4.821,12.387-6.64v15.978C326.546,189.071,324.129,186.218,324.129,183.266z M357.161,236.277v-15.978
		c9.97,3.533,12.387,6.387,12.387,9.338C369.284,230.958,365.038,234.458,357.161,236.277z"/>
</g>
<path style="fill:#FFFFFF;" d="M264.258,378.066v-21.665c5.125,1.641,8.258,4.549,8.258,6.728c0,4.565,3.694,8.258,8.258,8.258
	s8.258-3.694,8.258-8.258c0-11.612-10.398-21.015-24.774-23.683v-0.833c0-4.565-3.694-8.258-8.258-8.258s-8.258,3.694-8.258,8.258
	v0.833c-14.376,2.668-24.774,12.071-24.774,23.683c0,16.253,13.639,23.001,24.774,26.87v21.665
	c-5.124-1.641-8.258-4.549-8.258-6.728c0-4.565-3.694-8.258-8.258-8.258c-4.565,0-8.258,3.694-8.258,8.258
	c0,11.612,10.398,21.015,24.774,23.683v0.833c0,4.565,3.694,8.258,8.258,8.258c4.564,0,8.258-3.694,8.258-8.258v-0.833
	c14.376-2.668,24.774-12.071,24.774-23.683C289.032,388.683,275.394,381.934,264.258,378.066z M239.484,363.129
	c0-2.179,3.134-5.087,8.258-6.728v15.814C241.03,369.169,239.484,366.563,239.484,363.129z M264.258,411.664V395.85
	c6.712,3.045,8.258,5.651,8.258,9.085C272.516,407.114,269.383,410.023,264.258,411.664z"/>
<path style="fill:#AFD755;" d="M189.935,301.775v19.666c21.878,2.083,43.906,3.228,66.088,3.228c22.166,0,44.178-1.144,66.041-3.224
	v-19.682c-21.477,2.292-43.55,3.546-66.123,3.546C233.409,305.308,211.376,304.058,189.935,301.775z"/>
<g>
</g>
<g>
</g>
<g>
</g>
<g>
</g>
<g>
</g>
<g>
</g>
<g>
</g>
<g>
</g>
<g>
</g>
<g>
</g>
<g>
</g>
<g>
</g>
<g>
</g>
<g>
</g>
<g>
</g>
</svg>
