<?xml version="1.0" encoding="iso-8859-1"?>
<!-- Generator: Adobe Illustrator 19.0.0, SVG Export Plug-In . SVG Version: 6.00 Build 0)  -->
<svg version="1.1" id="Capa_1" xmlns="http://www.w3.org/2000/svg" xmlns:xlink="http://www.w3.org/1999/xlink" x="0px" y="0px"
	 viewBox="0 0 512 512" style="enable-background:new 0 0 512 512;" xml:space="preserve">
<circle style="fill:#FFE17D;" cx="256" cy="256" r="256"/>
<path style="fill:#FFD164;" d="M293.161,474.839c-141.385,0-256-114.615-256-256c0-61.227,21.521-117.411,57.376-161.463
	C36.863,104.316,0,175.842,0,256c0,141.385,114.615,256,256,256c80.159,0,151.685-36.864,198.626-94.538
	C410.573,453.317,354.389,474.839,293.161,474.839z"/>
<path style="fill:#7D5046;" d="M169.29,256L169.29,256c-11.402,0-20.645-9.243-20.645-20.645v-16.516
	c0-11.402,9.243-20.645,20.645-20.645l0,0c11.402,0,20.645,9.243,20.645,20.645v16.516C189.935,246.757,180.692,256,169.29,256z"/>
<path style="fill:#9C6846;" d="M169.29,198.194c-1.414,0-2.794,0.145-4.129,0.416v28.487c0,6.841,5.546,12.387,12.387,12.387
	s12.387-5.546,12.387-12.387v-8.258C189.935,207.436,180.693,198.194,169.29,198.194z"/>
<path style="fill:#7D5046;" d="M342.71,256L342.71,256c-11.402,0-20.645-9.243-20.645-20.645v-16.516
	c0-11.402,9.243-20.645,20.645-20.645l0,0c11.402,0,20.645,9.243,20.645,20.645v16.516C363.355,246.757,354.112,256,342.71,256z"/>
<path style="fill:#9C6846;" d="M342.71,198.194c-1.414,0-2.794,0.145-4.129,0.416v28.487c0,6.841,5.546,12.387,12.387,12.387
	s12.387-5.546,12.387-12.387v-8.258C363.355,207.436,354.112,198.194,342.71,198.194z"/>
<g>
	<path style="fill:#C9C6CA;" d="M140.387,379.871h-16.516c-4.561,0-8.258-3.697-8.258-8.258v-16.516h33.032v16.516
		C148.645,376.174,144.948,379.871,140.387,379.871z"/>
	<path style="fill:#C9C6CA;" d="M189.935,379.871h-16.516c-4.561,0-8.258-3.697-8.258-8.258v-16.516h33.032v16.516
		C198.194,376.174,194.496,379.871,189.935,379.871z"/>
	<path style="fill:#C9C6CA;" d="M239.484,379.871h-16.516c-4.561,0-8.258-3.697-8.258-8.258v-16.516h33.032v16.516
		C247.742,376.174,244.045,379.871,239.484,379.871z"/>
	<path style="fill:#C9C6CA;" d="M289.032,379.871h-16.516c-4.561,0-8.258-3.697-8.258-8.258v-16.516h33.032v16.516
		C297.29,376.174,293.593,379.871,289.032,379.871z"/>
	<path style="fill:#C9C6CA;" d="M338.581,379.871h-16.516c-4.561,0-8.258-3.697-8.258-8.258v-16.516h33.032v16.516
		C346.839,376.174,343.141,379.871,338.581,379.871z"/>
	<path style="fill:#C9C6CA;" d="M388.129,379.871h-16.516c-4.561,0-8.258-3.697-8.258-8.258v-16.516h33.032v16.516
		C396.387,376.174,392.69,379.871,388.129,379.871z"/>
	<path style="fill:#C9C6CA;" d="M346.839,330.323h16.516c4.561,0,8.258,3.697,8.258,8.258v16.516h-33.032v-16.516
		C338.581,334.02,342.278,330.323,346.839,330.323z"/>
	<path style="fill:#C9C6CA;" d="M297.29,330.323h16.516c4.561,0,8.258,3.697,8.258,8.258v16.516h-33.032v-16.516
		C289.032,334.02,292.73,330.323,297.29,330.323z"/>
	<path style="fill:#C9C6CA;" d="M247.742,330.323h16.516c4.561,0,8.258,3.697,8.258,8.258v16.516h-33.032v-16.516
		C239.484,334.02,243.181,330.323,247.742,330.323z"/>
	<path style="fill:#C9C6CA;" d="M198.194,330.323h16.516c4.561,0,8.258,3.697,8.258,8.258v16.516h-33.032v-16.516
		C189.935,334.02,193.633,330.323,198.194,330.323z"/>
	<path style="fill:#C9C6CA;" d="M148.645,330.323h16.516c4.561,0,8.258,3.697,8.258,8.258v16.516h-33.032v-16.516
		C140.387,334.02,144.084,330.323,148.645,330.323z"/>
</g>
<path style="fill:#B7B2B8;" d="M415.323,354.097c-4.677-4.677-10.903-7.258-17.516-7.258H107.355c-4.565,0-8.258,3.694-8.258,8.258
	s3.694,8.258,8.258,8.258h290.452c2.169,0,4.298,0.879,5.839,2.419l19.935,19.935l11.677-11.677L415.323,354.097z"/>
<path style="fill:#C9C6CA;" d="M498.075,413.49L457.2,372.614c-9.675-9.675-25.361-9.675-35.036,0
	c-9.675,9.675-9.675,25.361,0,35.036l40.875,40.876c6.45,6.45,16.908,6.45,23.357,0l11.679-11.679
	C504.525,430.397,504.525,419.94,498.075,413.49z M474.717,436.848L461.5,423.631l11.679-11.679l13.217,13.217L474.717,436.848z"/>
<path style="fill:#B7B2B8;" d="M484.858,400.273l-11.679,11.679l13.217,13.217l-11.679,11.679L461.5,423.631l-11.678,11.678
	l13.217,13.217c6.45,6.45,16.908,6.45,23.357,0l11.679-11.679c6.45-6.45,6.45-16.907,0-23.357L484.858,400.273z"/>
<g>
</g>
<g>
</g>
<g>
</g>
<g>
</g>
<g>
</g>
<g>
</g>
<g>
</g>
<g>
</g>
<g>
</g>
<g>
</g>
<g>
</g>
<g>
</g>
<g>
</g>
<g>
</g>
<g>
</g>
</svg>
