<?xml version="1.0" encoding="iso-8859-1"?>
<!-- Generator: Adobe Illustrator 19.0.0, SVG Export Plug-In . SVG Version: 6.00 Build 0)  -->
<svg version="1.1" id="Capa_1" xmlns="http://www.w3.org/2000/svg" xmlns:xlink="http://www.w3.org/1999/xlink" x="0px" y="0px"
	 viewBox="0 0 512 512" style="enable-background:new 0 0 512 512;" xml:space="preserve">
<path style="fill:#FFE17D;" d="M487.227,231.226C487.227,358.928,356.339,512,256,512S24.774,358.928,24.774,231.226
	S128.298,0,256,0S487.227,103.523,487.227,231.226z"/>
<path style="fill:#FFD164;" d="M305.548,495.484c-100.338,0-231.226-161.33-231.226-289.032c0-80.667,41.334-151.65,103.951-193.022
	c-89.459,31.93-153.5,117.368-153.5,217.796C24.774,358.928,155.662,512,256,512c20.459,0,42.186-6.45,63.817-17.665
	C315.011,495.02,310.237,495.484,305.548,495.484z"/>
<path style="fill:#9C6846;" d="M256,445.935L256,445.935c-27.365,0-49.548-22.184-49.548-49.548v-41.29
	c0-27.365,22.184-49.548,49.548-49.548l0,0c27.365,0,49.548,22.184,49.548,49.548v41.29
	C305.548,423.752,283.365,445.935,256,445.935z"/>
<g>
	<path style="fill:#FFD164;" d="M79.418,324.349L79.418,324.349c-15.681,3.136-25.324,18.954-20.892,34.319
		c8.493,29.445,20.373,78.341,23.354,129.8C82.644,501.641,93.387,512,106.582,512h54.9c15.539,0,27.253-14.085,24.36-29.352
		c-7.559-39.882-28.431-111.037-84.322-153.173C95.207,324.715,87.17,322.798,79.418,324.349z"/>
	<path style="fill:#FFD164;" d="M432.582,324.349L432.582,324.349c15.681,3.136,25.324,18.954,20.892,34.319
		c-8.493,29.445-20.373,78.341-23.354,129.8C429.356,501.641,418.613,512,405.418,512h-54.9c-15.539,0-27.253-14.085-24.36-29.352
		c7.559-39.882,28.431-111.037,84.322-153.173C416.793,324.715,424.83,322.798,432.582,324.349z"/>
</g>
<path style="fill:#C4DEFF;" d="M256,165.161c91.791,0,173.526,42.84,226.471,109.558c3.041-14.647,4.755-29.231,4.755-43.494
	C487.227,103.523,383.703,0,256,0S24.774,103.523,24.774,231.226c0,14.263,1.714,28.847,4.755,43.494
	C82.474,208.001,164.209,165.161,256,165.161z"/>
<path style="fill:#A5CDFF;" d="M74.323,206.452c0-80.667,41.334-151.65,103.951-193.022c-89.459,31.93-153.5,117.368-153.5,217.796
	c0,14.263,1.714,28.846,4.754,43.493l0.001,0.001c13.567-17.097,29.049-32.595,46.082-46.236
	C74.798,221.058,74.323,213.696,74.323,206.452z"/>
<g>
	<path style="fill:#FFFFFF;" d="M327.147,150.969L327.147,150.969c28.37-8.603,58.342,7.421,66.945,35.79l9.586,31.611
		c8.603,28.369-7.421,58.342-35.79,66.945l0,0c-28.369,8.603-58.342-7.421-66.945-35.79l-9.586-31.611
		C282.753,189.545,298.777,159.572,327.147,150.969z"/>
	<path style="fill:#FFFFFF;" d="M184.853,150.969L184.853,150.969c-28.37-8.603-58.342,7.421-66.945,35.79l-9.586,31.611
		c-8.603,28.369,7.421,58.342,35.79,66.945l0,0c28.369,8.603,58.342-7.421,66.945-35.79l9.586-31.611
		C229.247,189.545,213.223,159.572,184.853,150.969z"/>
</g>
<g>
	<path style="fill:#FFC350;" d="M136.826,487.226c-12.35,0-22.404-8.638-23.118-19.622c-2.79-42.906-13.908-83.675-21.857-108.227
		c-3.539-10.93,2.558-22.077,13.525-26.756c-1.297-1.04-2.519-2.14-3.855-3.148c-6.312-4.759-14.349-6.676-22.101-5.125
		c-15.681,3.137-25.324,18.954-20.892,34.319c8.493,29.445,20.372,78.342,23.354,129.8C82.644,501.641,93.387,512,106.582,512h54.9
		c13.963,0,24.74-11.39,24.702-24.774H136.826z"/>
	<path style="fill:#FFC350;" d="M396.414,487.226c-15.539,0-27.253-12.981-24.36-27.05c6.938-33.737,25.178-91.702,71.338-131.032
		c-3.113-2.288-6.745-3.982-10.81-4.795c-7.752-1.55-15.789,0.367-22.101,5.125c-55.891,42.137-76.764,113.291-84.322,153.174
		C323.266,497.915,334.981,512,350.52,512h54.9c13.196,0,23.938-10.359,24.701-23.533c0.024-0.417,0.073-0.825,0.098-1.241H396.414z
		"/>
</g>
<path style="fill:#7D5046;" d="M256,305.548c-27.365,0-49.548,22.183-49.548,49.548v33.032c0-27.365,22.183-49.548,49.548-49.548
	s49.548,22.183,49.548,49.548v-33.032C305.548,327.732,283.365,305.548,256,305.548z"/>
<g>
</g>
<g>
</g>
<g>
</g>
<g>
</g>
<g>
</g>
<g>
</g>
<g>
</g>
<g>
</g>
<g>
</g>
<g>
</g>
<g>
</g>
<g>
</g>
<g>
</g>
<g>
</g>
<g>
</g>
</svg>
