<?xml version="1.0" encoding="iso-8859-1"?>
<!-- Generator: Adobe Illustrator 19.0.0, SVG Export Plug-In . SVG Version: 6.00 Build 0)  -->
<svg version="1.1" id="Capa_1" xmlns="http://www.w3.org/2000/svg" xmlns:xlink="http://www.w3.org/1999/xlink" x="0px" y="0px"
	 viewBox="0 0 512.001 512.001" style="enable-background:new 0 0 512.001 512.001;" xml:space="preserve">
<circle style="fill:#FFE17D;" cx="255.997" cy="255.999" r="247.997"/>
<path style="fill:#FFD164;" d="M292.001,467.999c-136.965,0-247.997-111.032-247.997-247.997c0-59.312,20.849-113.74,55.581-156.415
	C43.715,109.06,8.004,178.35,8.004,256.003c0,136.964,111.031,247.997,247.997,247.997c77.653,0,146.943-35.712,192.415-91.583
	C405.741,447.15,351.313,467.999,292.001,467.999z"/>
<g>
	<path style="fill:#AA7346;" d="M136.003,234.003c-5.523,0-10-4.477-10-10c0-5.516,4.469-9.992,9.984-10l0,0
		c0.43,0,43.499-0.453,54.874-26.062c2.234-5.039,8.133-7.336,13.203-5.078c5.047,2.242,7.32,8.156,5.078,13.203
		C192.47,233.573,138.3,234.003,136.003,234.003z"/>
	<path style="fill:#AA7346;" d="M375.998,234.003c-2.297,0-56.468-0.43-73.14-37.936c-2.242-5.047,0.031-10.961,5.078-13.203
		c5.055-2.258,10.953,0.039,13.203,5.078c11.375,25.609,54.444,26.062,54.874,26.062c5.516,0.023,9.984,4.5,9.977,10.016
		C385.983,229.534,381.514,234.003,375.998,234.003z"/>
</g>
<g>
	<path style="fill:#FFF1C4;" d="M160.002,352H32.004c-4.422,0-8,3.578-8,8s3.578,8,8,8h127.998V352z"/>
	<path style="fill:#FFF1C4;" d="M160.002,291.107l-149.803-42.8c-4.211-1.172-8.672,1.242-9.891,5.5
		c-1.211,4.242,1.25,8.672,5.5,9.891l154.193,44.055L160.002,291.107L160.002,291.107z"/>
	<path style="fill:#FFF1C4;" d="M351.999,352h127.998c4.422,0,8,3.578,8,8s-3.578,8-8,8H351.999V352z"/>
	<path style="fill:#FFF1C4;" d="M351.999,291.107l149.803-42.8c4.211-1.172,8.672,1.242,9.891,5.5c1.211,4.242-1.25,8.672-5.5,9.891
		L352,307.753L351.999,291.107L351.999,291.107z"/>
</g>
<path style="fill:#FFFFFF;" d="M144.003,288.002v93.758c0,11.038,7.535,20.64,18.233,23.357c61.53,15.629,126.001,15.629,187.531,0
	C360.465,402.4,368,392.797,368,381.76v-93.758c0-8.837-7.163-16-16-16H160.002C151.165,272.002,144.003,279.165,144.003,288.002z"
	/>
<g>
</g>
<g>
</g>
<g>
</g>
<g>
</g>
<g>
</g>
<g>
</g>
<g>
</g>
<g>
</g>
<g>
</g>
<g>
</g>
<g>
</g>
<g>
</g>
<g>
</g>
<g>
</g>
<g>
</g>
</svg>
