<?xml version="1.0" encoding="iso-8859-1"?>
<!-- Generator: Adobe Illustrator 19.0.0, SVG Export Plug-In . SVG Version: 6.00 Build 0)  -->
<svg version="1.1" id="Capa_1" xmlns="http://www.w3.org/2000/svg" xmlns:xlink="http://www.w3.org/1999/xlink" x="0px" y="0px"
	 viewBox="0 0 512 512" style="enable-background:new 0 0 512 512;" xml:space="preserve">
<circle style="fill:#FFE17D;" cx="256.002" cy="239.48" r="239.48"/>
<ellipse style="fill:#9C6846;" cx="256.002" cy="309.68" rx="33.03" ry="28.903"/>
<path style="fill:#FFD164;" d="M290.766,444.204c-132.264,0-239.484-107.221-239.484-239.484
	c0-57.277,20.133-109.836,53.674-151.046c-53.953,43.912-88.438,110.823-88.438,185.81c0,132.263,107.22,239.484,239.484,239.484
	c74.987,0,141.899-34.486,185.811-88.439C400.603,424.07,348.043,444.204,290.766,444.204z"/>
<g>
	<path style="fill:#AA7346;" d="M115.623,134.242c-2.887,0-5.766-1.202-7.806-3.556c-3.726-4.306-3.274-10.815,1.032-14.548
		c1.452-1.266,36.121-31.024,86.879-43.524c5.565-1.355,11.121,2.024,12.492,7.556c1.363,5.532-2.016,11.129-7.556,12.492
		c-45.734,11.266-77.968,38.79-78.29,39.064C120.421,133.419,118.018,134.242,115.623,134.242z"/>
	<path style="fill:#AA7346;" d="M396.381,134.242c-2.395,0-4.798-0.823-6.75-2.516c-0.323-0.274-32.556-27.798-78.29-39.064
		c-5.54-1.363-8.919-6.96-7.556-12.492c1.371-5.532,6.919-8.911,12.492-7.556c50.758,12.5,85.427,42.258,86.879,43.524
		c4.306,3.734,4.758,10.242,1.032,14.548C402.147,133.04,399.268,134.242,396.381,134.242z"/>
</g>
<path style="fill:#FFC350;" d="M332.757,412.903l12.564-26.117c3.817-8.284,0.196-18.095-8.089-21.912s-18.095-0.196-21.912,8.089
	l-19.227,39.94H332.757z"/>
<path style="fill:#7D5046;" d="M177.55,206.452L177.55,206.452c-11.402,0-20.645-9.243-20.645-20.645V169.29
	c0-11.402,9.243-20.645,20.645-20.645l0,0c11.402,0,20.645,9.243,20.645,20.645v16.516
	C198.196,197.208,188.952,206.452,177.55,206.452z"/>
<path style="fill:#9C6846;" d="M177.55,148.645c-1.414,0-2.794,0.145-4.129,0.416v28.487c0,6.841,5.546,12.387,12.387,12.387
	c6.841,0,12.387-5.546,12.387-12.387v-8.258C198.196,157.888,188.953,148.645,177.55,148.645z"/>
<path style="fill:#7D5046;" d="M334.454,206.452L334.454,206.452c-11.402,0-20.645-9.243-20.645-20.645V169.29
	c0-11.402,9.243-20.645,20.645-20.645l0,0c11.402,0,20.645,9.243,20.645,20.645v16.516
	C355.099,197.208,345.856,206.452,334.454,206.452z"/>
<path style="fill:#9C6846;" d="M334.454,148.645c-1.414,0-2.794,0.145-4.129,0.416v28.487c0,6.841,5.546,12.387,12.387,12.387
	s12.387-5.546,12.387-12.387v-8.258C355.099,157.888,345.856,148.645,334.454,148.645z"/>
<path style="fill:#7D5046;" d="M256.002,305.548c13.155,0,24.418,6.778,29.731,16.516c2.055-3.767,3.301-7.934,3.301-12.387
	c0-15.963-14.789-28.903-33.032-28.903c-18.243,0-33.032,12.941-33.032,28.903c0,4.453,1.245,8.62,3.301,12.387
	C231.584,312.327,242.847,305.548,256.002,305.548z"/>
<path style="fill:#FFD164;" d="M271.381,388.129h45.378c10.799,0,20.64,7.77,21.717,18.515c1.238,12.358-8.433,22.775-20.538,22.775
	h-8.258c12.104,0,21.775,10.416,20.538,22.774c-1.076,10.746-10.917,18.516-21.716,18.516h-7.08
	c12.104,0,21.775,10.416,20.538,22.774C320.884,504.229,311.043,512,300.244,512h-60.758c-13.682,0-24.774-11.092-24.774-24.774
	V289.621c0-9.447,7.658-17.105,17.105-17.105l0,0c8.974,0,16.422,6.935,17.062,15.887l6.028,84.387
	C255.524,381.432,262.716,388.129,271.381,388.129z"/>
<g>
	<path style="fill:#FFC350;" d="M264.261,495.484c-18.243,0-33.032-14.789-33.032-33.032V272.577
		c-9.167,0.318-16.517,7.799-16.517,17.044v197.604c0,13.682,11.092,24.774,24.774,24.774h60.758
		c10.098,0,19.224-6.848,21.261-16.516h-57.244V495.484z"/>
	<path style="fill:#FFC350;" d="M305.55,412.903c-4.561,0-8.258,3.697-8.258,8.258c0,4.56,3.697,8.258,8.258,8.258h4.129h8.258
		c9.974,0,18.19-7.112,20.118-16.516H305.55z"/>
	<path style="fill:#FFC350;" d="M297.292,454.193c-4.561,0-8.258,3.697-8.258,8.258c0,4.56,3.697,8.258,8.258,8.258h4.129h7.08
		c10.104,0,19.272-6.84,21.304-16.516H297.292z"/>
</g>
<g>
</g>
<g>
</g>
<g>
</g>
<g>
</g>
<g>
</g>
<g>
</g>
<g>
</g>
<g>
</g>
<g>
</g>
<g>
</g>
<g>
</g>
<g>
</g>
<g>
</g>
<g>
</g>
<g>
</g>
</svg>
