<?xml version="1.0" encoding="iso-8859-1"?>
<!-- Generator: Adobe Illustrator 19.0.0, SVG Export Plug-In . SVG Version: 6.00 Build 0)  -->
<svg version="1.1" id="Capa_1" xmlns="http://www.w3.org/2000/svg" xmlns:xlink="http://www.w3.org/1999/xlink" x="0px" y="0px"
	 viewBox="0 0 512 512" style="enable-background:new 0 0 512 512;" xml:space="preserve">
<circle style="fill:#FFE17D;" cx="256" cy="256" r="256"/>
<path style="fill:#FFD164;" d="M293.161,474.839c-141.385,0-256-114.615-256-256c0-61.227,21.521-117.411,57.376-161.463
	C36.863,104.316,0,175.842,0,256c0,141.385,114.615,256,256,256c80.159,0,151.685-36.864,198.626-94.538
	C410.573,453.317,354.389,474.839,293.161,474.839z"/>
<path style="fill:#AA7346;" d="M107.419,183.734c-2.887,0-5.766-1.206-7.806-3.56c-3.726-4.302-3.274-10.81,1.024-14.544
	c1.452-1.262,36.129-31.028,86.887-43.524c5.565-1.347,11.129,2.024,12.492,7.556c1.363,5.536-2.024,11.129-7.556,12.492
	c-45.734,11.258-77.968,38.79-78.29,39.069C112.218,182.907,109.815,183.734,107.419,183.734z"/>
<path style="fill:#9C6846;" d="M256,394.107c27.16,0,53.289,2.114,77.717,6.016c19.827,3.167,34.447-18.282,24.383-35.656
	c-20.404-35.222-58.456-58.92-102.1-58.92s-81.696,23.698-102.1,58.92c-10.065,17.374,4.556,38.823,24.383,35.656
	C202.711,396.221,228.84,394.107,256,394.107z"/>
<path style="fill:#7D5046;" d="M361.19,378.848c0.496-4.718-0.373-9.693-3.089-14.38c-20.404-35.222-58.456-58.92-102.1-58.92
	s-81.696,23.698-102.1,58.92c-2.715,4.686-3.585,9.659-3.09,14.376c32.92-9.412,68.305-14.532,105.169-14.532
	C292.857,364.311,328.258,369.431,361.19,378.848z"/>
<path style="fill:#AA7346;" d="M404.637,183.734c-2.395,0-4.798-0.827-6.75-2.512c-0.323-0.278-32.556-27.81-78.29-39.069
	c-5.532-1.363-8.919-6.956-7.556-12.492c1.371-5.532,6.919-8.903,12.492-7.556c50.758,12.496,85.435,42.262,86.887,43.524
	c4.298,3.734,4.75,10.242,1.024,14.544C410.403,182.528,407.524,183.734,404.637,183.734z"/>
<path style="fill:#7D5046;" d="M169.29,264.258L169.29,264.258c-11.402,0-20.645-9.243-20.645-20.645v-16.516
	c0-11.402,9.243-20.645,20.645-20.645l0,0c11.402,0,20.645,9.243,20.645,20.645v16.516
	C189.935,255.015,180.692,264.258,169.29,264.258z"/>
<path style="fill:#9C6846;" d="M169.29,206.452c-1.414,0-2.794,0.145-4.129,0.416v28.487c0,6.841,5.546,12.387,12.387,12.387
	s12.387-5.546,12.387-12.387v-8.258C189.935,215.695,180.693,206.452,169.29,206.452z"/>
<path style="fill:#7D5046;" d="M342.71,264.258L342.71,264.258c-11.402,0-20.645-9.243-20.645-20.645v-16.516
	c0-11.402,9.243-20.645,20.645-20.645l0,0c11.402,0,20.645,9.243,20.645,20.645v16.516
	C363.355,255.015,354.112,264.258,342.71,264.258z"/>
<path style="fill:#9C6846;" d="M342.71,206.452c-1.414,0-2.794,0.145-4.129,0.416v28.487c0,6.841,5.546,12.387,12.387,12.387
	s12.387-5.546,12.387-12.387v-8.258C363.355,215.695,354.112,206.452,342.71,206.452z"/>
<path style="fill:#FFFFFF;" d="M162.723,351.374c28.239-8.199,59.858-12.793,93.264-12.793c33.416,0,65.047,4.594,93.294,12.797
	c-21.566-27.871-55.299-45.83-93.28-45.83C218.021,305.548,184.288,323.506,162.723,351.374z"/>
<g>
</g>
<g>
</g>
<g>
</g>
<g>
</g>
<g>
</g>
<g>
</g>
<g>
</g>
<g>
</g>
<g>
</g>
<g>
</g>
<g>
</g>
<g>
</g>
<g>
</g>
<g>
</g>
<g>
</g>
</svg>
