<?xml version="1.0" encoding="iso-8859-1"?>
<!-- Generator: Adobe Illustrator 19.0.0, SVG Export Plug-In . SVG Version: 6.00 Build 0)  -->
<svg version="1.1" id="Capa_1" xmlns="http://www.w3.org/2000/svg" xmlns:xlink="http://www.w3.org/1999/xlink" x="0px" y="0px"
	 viewBox="0 0 512 512" style="enable-background:new 0 0 512 512;" xml:space="preserve">
<circle style="fill:#FFE17D;" cx="256" cy="256" r="256"/>
<circle style="fill:#FFFFFF;" cx="165.16" cy="214.71" r="66.06"/>
<path style="fill:#FFD164;" d="M293.161,474.839c-141.385,0-256-114.615-256-256c0-61.227,21.521-117.411,57.376-161.463
	C36.863,104.316,0,175.842,0,256c0,141.385,114.615,256,256,256c80.159,0,151.685-36.864,198.626-94.538
	C410.573,453.317,354.389,474.839,293.161,474.839z"/>
<path style="fill:#AA7346;" d="M305.548,373.677h-74.323c-5.702,0-10.323-4.621-10.323-10.323s4.621-10.323,10.323-10.323h74.323
	c5.702,0,10.323,4.621,10.323,10.323S311.25,373.677,305.548,373.677z"/>
<circle style="fill:#5A4650;" cx="185.81" cy="177.55" r="24.774"/>
<circle style="fill:#FFFFFF;" cx="346.84" cy="214.71" r="66.06"/>
<circle style="fill:#5A4650;" cx="367.48" cy="177.55" r="24.774"/>
<g>
</g>
<g>
</g>
<g>
</g>
<g>
</g>
<g>
</g>
<g>
</g>
<g>
</g>
<g>
</g>
<g>
</g>
<g>
</g>
<g>
</g>
<g>
</g>
<g>
</g>
<g>
</g>
<g>
</g>
</svg>
