<?xml version="1.0" encoding="iso-8859-1"?>
<!-- Generator: Adobe Illustrator 19.0.0, SVG Export Plug-In . SVG Version: 6.00 Build 0)  -->
<svg version="1.1" id="Capa_1" xmlns="http://www.w3.org/2000/svg" xmlns:xlink="http://www.w3.org/1999/xlink" x="0px" y="0px"
	 viewBox="0 0 512 512" style="enable-background:new 0 0 512 512;" xml:space="preserve">
<circle style="fill:#FFE17D;" cx="256" cy="256" r="256"/>
<path style="fill:#FFD164;" d="M293.161,474.839c-141.385,0-256-114.615-256-256c0-61.227,21.521-117.411,57.376-161.463
	C36.863,104.316,0,175.842,0,256c0,141.385,114.615,256,256,256c80.159,0,151.685-36.864,198.626-94.538
	C410.573,453.317,354.389,474.839,293.161,474.839z"/>
<path style="fill:#9C6846;" d="M256,305.305c-49.323,0-96.405-5.727-139.598-16.079c-5.595-1.341-10.417,4.504-8.691,10.596
	c19.92,70.324,78.718,121.34,148.29,121.34s128.369-51.016,148.29-121.34c1.726-6.092-3.096-11.937-8.691-10.596
	C352.405,299.578,305.323,305.305,256,305.305z"/>
<g>
	<path style="fill:#AA7346;" d="M132.137,241.552c-3.79,0-7.435-2.093-9.242-5.71c-2.548-5.101-0.484-11.298,4.621-13.851
		l47.597-23.798l-47.597-23.798c-5.105-2.552-7.169-8.75-4.621-13.851c2.54-5.097,8.75-7.177,13.847-4.617l66.065,33.032
		c3.5,1.75,5.71,5.323,5.71,9.234s-2.21,7.484-5.71,9.234l-66.065,33.032C135.266,241.198,133.685,241.552,132.137,241.552z"/>
	<path style="fill:#AA7346;" d="M379.863,241.552c-1.548,0-3.129-0.351-4.605-1.093l-66.065-33.032c-3.5-1.75-5.71-5.323-5.71-9.234
		s2.21-7.484,5.71-9.234l66.065-33.032c5.097-2.536,11.298-0.472,13.847,4.617c2.548,5.101,0.484,11.298-4.621,13.851
		l-47.597,23.798l47.597,23.798c5.105,2.552,7.169,8.75,4.621,13.851C387.298,239.46,383.653,241.552,379.863,241.552z"/>
</g>
<path style="fill:#7D5046;" d="M256.021,338.581c47.23,0,93.834-5.339,139.696-14.993c3.342-7.635,6.246-15.554,8.573-23.766
	c1.726-6.092-3.096-11.936-8.691-10.596c-43.194,10.352-90.275,16.079-139.598,16.079s-96.405-5.726-139.598-16.079
	c-5.595-1.341-10.417,4.504-8.691,10.596c2.325,8.209,5.229,16.124,8.569,23.756C162.155,333.238,208.776,338.581,256.021,338.581z"
	/>
<path style="fill:#E6646E;" d="M322.065,301.763c-21.458,2.289-43.511,3.542-66.065,3.542s-44.606-1.253-66.065-3.542v86.366
	c0,36.486,29.578,66.065,66.065,66.065s66.065-29.578,66.065-66.065V301.763z"/>
<path style="fill:#DC4655;" d="M322.065,301.763c-21.458,2.289-43.511,3.542-66.065,3.542s-44.606-1.253-66.065-3.542v33.352
	c13.827,1.42,27.727,2.305,41.677,2.8c6.684,0.237,12.001,5.646,12.001,12.334v29.623c0,6.843,5.548,12.387,12.387,12.387
	s12.387-5.544,12.387-12.387V350.25c0-6.689,5.317-12.097,12.001-12.334c13.949-0.495,27.849-1.379,41.676-2.798v-33.355H322.065z"
	/>
<g>
</g>
<g>
</g>
<g>
</g>
<g>
</g>
<g>
</g>
<g>
</g>
<g>
</g>
<g>
</g>
<g>
</g>
<g>
</g>
<g>
</g>
<g>
</g>
<g>
</g>
<g>
</g>
<g>
</g>
</svg>
