<?xml version="1.0" encoding="iso-8859-1"?>
<!-- Generator: Adobe Illustrator 19.0.0, SVG Export Plug-In . SVG Version: 6.00 Build 0)  -->
<svg version="1.1" id="Capa_1" xmlns="http://www.w3.org/2000/svg" xmlns:xlink="http://www.w3.org/1999/xlink" x="0px" y="0px"
	 viewBox="0 0 512 512" style="enable-background:new 0 0 512 512;" xml:space="preserve">
<circle style="fill:#FFE17D;" cx="256" cy="256" r="256"/>
<path style="fill:#E6646E;" d="M381.045,324.068l-12.156-12.155l-3.959,2.292c-21.911,31.88-57.444,53.583-98.206,56.866
	l-1.379,0.798l33.949,33.949c22.575,22.575,59.175,22.575,81.751,0v-0.001C403.619,383.244,403.619,346.643,381.045,324.068z"/>
<path style="fill:#FFD164;" d="M293.161,474.839c-141.385,0-256-114.615-256-256c0-61.227,21.521-117.411,57.376-161.463
	C36.863,104.316,0,175.842,0,256c0,141.385,114.615,256,256,256c80.159,0,151.685-36.864,198.626-94.538
	C410.573,453.317,354.389,474.839,293.161,474.839z"/>
<path style="fill:#DC4655;" d="M354.766,362.024L336.5,343.758l-17.516,17.516l18.266,18.266c2.419,2.419,5.589,3.629,8.758,3.629
	s6.339-1.21,8.758-3.629C359.605,374.706,359.605,366.859,354.766,362.024z"/>
<g>
	<path style="fill:#AA7346;" d="M379.911,216.774c-3.024,0-6.016-1.319-8.056-3.855c-6.556-8.165-15.435-12.661-24.984-12.661
		c-9.548,0-18.427,4.496-24.984,12.661c-3.573,4.44-10.073,5.157-14.516,1.577c-4.444-3.569-5.153-10.069-1.581-14.512
		c10.411-12.948,25.379-20.371,41.081-20.371s30.669,7.423,41.081,20.371c3.573,4.444,2.863,10.944-1.581,14.512
		C384.468,216.028,382.177,216.774,379.911,216.774z"/>
	<path style="fill:#AA7346;" d="M198.202,216.774c-3.024,0-6.016-1.319-8.056-3.855c-6.556-8.165-15.435-12.661-24.984-12.661
		s-18.427,4.496-24.984,12.661c-3.565,4.44-10.081,5.157-14.516,1.577c-4.444-3.569-5.153-10.069-1.581-14.512
		c10.411-12.948,25.379-20.371,41.081-20.371s30.669,7.423,41.081,20.371c3.573,4.444,2.863,10.944-1.581,14.512
		C202.758,216.028,200.468,216.774,198.202,216.774z"/>
	<path style="fill:#AA7346;" d="M256,381.935c-54.968,0-104.379-30.673-128.952-80.044c-2.54-5.105-0.46-11.302,4.645-13.843
		c5.097-2.524,11.298-0.464,13.839,4.641C166.589,335.004,208.919,361.29,256,361.29s89.411-26.286,110.468-68.601
		c2.54-5.113,8.742-7.181,13.839-4.641c5.105,2.54,7.185,8.738,4.645,13.843C360.379,351.262,310.968,381.935,256,381.935z"/>
</g>
<g>
</g>
<g>
</g>
<g>
</g>
<g>
</g>
<g>
</g>
<g>
</g>
<g>
</g>
<g>
</g>
<g>
</g>
<g>
</g>
<g>
</g>
<g>
</g>
<g>
</g>
<g>
</g>
<g>
</g>
</svg>
