<?xml version="1.0" encoding="iso-8859-1"?>
<!-- Generator: Adobe Illustrator 19.0.0, SVG Export Plug-In . SVG Version: 6.00 Build 0)  -->
<svg version="1.1" id="Capa_1" xmlns="http://www.w3.org/2000/svg" xmlns:xlink="http://www.w3.org/1999/xlink" x="0px" y="0px"
	 viewBox="0 0 512 512" style="enable-background:new 0 0 512 512;" xml:space="preserve">
<circle style="fill:#FFE17D;" cx="256" cy="256" r="256"/>
<path style="fill:#FFD164;" d="M293.161,474.839c-141.385,0-256-114.615-256-256c0-61.227,21.521-117.411,57.376-161.463
	C36.863,104.316,0,175.842,0,256c0,141.385,114.615,256,256,256c80.159,0,151.685-36.864,198.626-94.538
	C410.573,453.317,354.389,474.839,293.161,474.839z"/>
<g>
	<path style="fill:#AA7346;" d="M255.968,390.194c-25.476,0-48.863-6.81-64.161-18.685c-4.5-3.496-5.323-9.98-1.823-14.484
		c3.492-4.504,9.976-5.323,14.484-1.823c11.573,8.984,30.823,14.347,51.5,14.347c20.669,0,39.927-5.363,51.508-14.351
		c4.524-3.484,11-2.677,14.484,1.831c3.5,4.504,2.677,10.988-1.823,14.484C304.831,383.383,281.444,390.194,255.968,390.194z"/>
	<path style="fill:#AA7346;" d="M371.621,266.323c-3.024,0-6.016-1.319-8.056-3.855c-6.556-8.165-15.435-12.661-24.984-12.661
		c-9.548,0-18.427,4.496-24.984,12.661c-3.565,4.435-10.073,5.153-14.516,1.577c-4.444-3.569-5.153-10.069-1.581-14.512
		c10.411-12.948,25.379-20.371,41.081-20.371s30.669,7.423,41.081,20.371c3.573,4.444,2.863,10.944-1.581,14.512
		C376.177,265.577,373.887,266.323,371.621,266.323z"/>
	<path style="fill:#AA7346;" d="M388.121,225.036c-1.548,0-3.129-0.351-4.605-1.093c-0.298-0.145-31.726-15.427-77.968-15.427
		c-5.702,0-10.323-4.621-10.323-10.323s4.621-10.323,10.323-10.323c51.395,0,85.758,16.887,87.194,17.605
		c5.105,2.552,7.169,8.75,4.621,13.851C395.556,222.944,391.911,225.036,388.121,225.036z"/>
	<path style="fill:#AA7346;" d="M115.621,208.508c-2.887,0-5.766-1.206-7.806-3.56c-3.726-4.302-3.274-10.81,1.024-14.544
		c1.452-1.262,36.129-31.028,86.887-43.524c5.573-1.351,11.129,2.024,12.492,7.556c1.363,5.536-2.024,11.129-7.556,12.492
		c-45.734,11.258-77.968,38.79-78.29,39.069C120.419,207.681,118.016,208.508,115.621,208.508z"/>
</g>
<path style="fill:#7D5046;" d="M169.29,280.774L169.29,280.774c-11.402,0-20.645-9.243-20.645-20.645v-16.516
	c0-11.402,9.243-20.645,20.645-20.645l0,0c11.402,0,20.645,9.243,20.645,20.645v16.516
	C189.935,271.531,180.692,280.774,169.29,280.774z"/>
<path style="fill:#9C6846;" d="M169.29,222.968c-1.414,0-2.794,0.145-4.129,0.416v28.487c0,6.841,5.546,12.387,12.387,12.387
	s12.387-5.546,12.387-12.387v-8.258C189.935,232.211,180.693,222.968,169.29,222.968z"/>
<g>
</g>
<g>
</g>
<g>
</g>
<g>
</g>
<g>
</g>
<g>
</g>
<g>
</g>
<g>
</g>
<g>
</g>
<g>
</g>
<g>
</g>
<g>
</g>
<g>
</g>
<g>
</g>
<g>
</g>
</svg>
